<svg id="svg" version="1.1" width="400" height="400" viewBox="0 0 400 400" xmlns="http://www.w3.org/2000/svg" xmlns:xlink="http://www.w3.org/1999/xlink" ><g id="svgg"><path id="path0" d="" stroke="none" fill="#000000" fill-rule="evenodd"></path><path id="path1" d="M51.634 90.300 C 50.682 91.410,50.002 92.616,49.998 93.200 C 49.994 93.750,49.725 95.190,49.400 96.400 C 48.501 99.751,48.501 259.612,49.400 263.065 C 49.730 264.331,50.000 266.098,50.000 266.990 C 50.000 267.882,50.360 269.284,50.800 270.104 C 51.240 270.925,51.600 271.884,51.600 272.235 C 51.600 272.587,51.960 273.331,52.400 273.891 C 52.840 274.450,53.200 275.114,53.200 275.365 C 53.200 275.616,53.515 276.115,53.900 276.472 C 54.285 276.830,55.065 277.635,55.634 278.261 C 56.782 279.526,57.707 280.194,59.200 280.836 C 59.750 281.073,60.866 281.611,61.679 282.033 C 62.493 282.455,63.483 282.801,63.879 282.803 C 64.276 282.804,65.140 283.163,65.800 283.600 C 66.460 284.037,67.383 284.396,67.851 284.397 C 68.319 284.399,68.927 284.672,69.203 285.004 C 69.478 285.336,70.399 285.718,71.249 285.854 C 72.099 285.990,73.183 286.439,73.658 286.851 C 74.134 287.263,74.900 287.601,75.361 287.603 C 75.823 287.604,76.740 287.963,77.400 288.400 C 78.060 288.837,78.960 289.197,79.400 289.200 C 79.840 289.203,80.740 289.563,81.400 290.000 C 82.060 290.437,82.992 290.796,83.471 290.797 C 83.951 290.799,84.608 291.065,84.932 291.389 C 85.256 291.713,86.272 292.147,87.189 292.353 C 88.107 292.559,89.174 293.014,89.560 293.364 C 89.947 293.714,90.722 294.000,91.283 294.000 C 91.843 294.000,92.517 294.258,92.779 294.574 C 93.041 294.890,93.828 295.270,94.528 295.417 C 95.227 295.565,96.361 296.027,97.047 296.443 C 97.733 296.859,98.633 297.201,99.047 297.203 C 99.461 297.204,100.340 297.563,101.000 298.000 C 101.660 298.437,102.560 298.797,103.000 298.800 C 103.440 298.803,104.340 299.163,105.000 299.600 C 105.660 300.037,106.581 300.396,107.046 300.397 C 107.511 300.399,108.350 300.760,108.909 301.200 C 109.469 301.640,110.371 302.000,110.914 302.000 C 111.457 302.000,112.117 302.258,112.379 302.574 C 112.641 302.890,113.428 303.270,114.128 303.417 C 114.827 303.565,115.961 304.027,116.647 304.443 C 117.333 304.859,118.233 305.201,118.647 305.203 C 119.061 305.204,119.940 305.563,120.600 306.000 C 121.260 306.437,122.160 306.797,122.600 306.800 C 123.040 306.803,123.940 307.163,124.600 307.600 C 125.260 308.037,126.192 308.396,126.671 308.397 C 127.151 308.399,127.815 308.672,128.148 309.005 C 128.481 309.338,129.349 309.726,130.077 309.867 C 130.805 310.009,131.829 310.456,132.354 310.862 C 132.879 311.268,133.689 311.601,134.154 311.603 C 134.619 311.604,135.540 311.963,136.200 312.400 C 136.860 312.837,137.760 313.197,138.200 313.200 C 138.640 313.203,139.540 313.563,140.200 314.000 C 140.860 314.437,141.781 314.796,142.246 314.797 C 142.711 314.799,143.550 315.160,144.109 315.600 C 144.669 316.040,145.571 316.400,146.114 316.400 C 146.657 316.400,147.322 316.665,147.591 316.989 C 147.860 317.314,148.737 317.700,149.540 317.847 C 150.343 317.995,151.429 318.450,151.954 318.858 C 152.479 319.266,153.289 319.601,153.754 319.603 C 154.219 319.604,155.140 319.963,155.800 320.400 C 156.460 320.837,157.360 321.197,157.800 321.200 C 158.240 321.203,159.140 321.563,159.800 322.000 C 160.460 322.437,161.392 322.796,161.871 322.797 C 162.351 322.799,163.008 323.065,163.332 323.389 C 163.656 323.713,164.672 324.147,165.589 324.353 C 166.507 324.559,167.574 325.014,167.960 325.364 C 168.347 325.714,169.122 326.000,169.683 326.000 C 170.243 326.000,170.917 326.258,171.179 326.574 C 171.441 326.890,172.228 327.270,172.928 327.417 C 173.627 327.565,174.761 328.027,175.447 328.443 C 176.133 328.859,177.033 329.201,177.447 329.203 C 177.861 329.204,178.740 329.563,179.400 330.000 C 180.060 330.437,181.014 330.796,181.520 330.797 C 182.026 330.799,182.995 331.087,183.673 331.438 C 186.395 332.846,193.155 329.323,193.214 326.466 C 193.221 326.100,193.575 325.080,194.000 324.200 C 195.213 321.688,195.213 156.712,194.000 154.200 C 193.575 153.320,193.220 152.060,193.211 151.400 C 193.202 150.740,192.837 149.660,192.400 149.000 C 191.963 148.340,191.604 147.513,191.603 147.162 C 191.601 146.811,191.240 146.198,190.800 145.800 C 190.360 145.402,190.000 144.879,190.000 144.638 C 190.000 144.397,189.280 143.412,188.400 142.449 C 187.520 141.487,186.800 140.542,186.800 140.349 C 186.800 140.157,186.629 140.000,186.421 140.000 C 186.212 140.000,185.556 139.550,184.962 139.000 C 184.369 138.450,183.713 138.000,183.505 138.000 C 183.297 138.000,182.669 137.640,182.109 137.200 C 181.550 136.760,180.711 136.399,180.246 136.397 C 179.781 136.396,178.860 136.037,178.200 135.600 C 177.540 135.163,176.527 134.804,175.949 134.803 C 175.371 134.801,174.678 134.535,174.409 134.211 C 174.140 133.886,173.263 133.510,172.460 133.373 C 171.657 133.237,170.512 132.782,169.916 132.363 C 169.320 131.943,168.420 131.599,167.916 131.597 C 167.412 131.596,166.460 131.237,165.800 130.800 C 165.140 130.363,164.240 130.003,163.800 130.000 C 163.360 129.997,162.460 129.637,161.800 129.200 C 161.140 128.763,160.284 128.404,159.899 128.403 C 159.513 128.401,158.525 128.040,157.704 127.600 C 156.884 127.160,155.832 126.800,155.367 126.800 C 154.903 126.800,154.107 126.440,153.600 126.000 C 153.093 125.560,152.210 125.199,151.639 125.197 C 151.067 125.196,150.060 124.837,149.400 124.400 C 148.740 123.963,147.840 123.603,147.400 123.600 C 146.960 123.597,146.060 123.237,145.400 122.800 C 144.740 122.363,143.840 122.003,143.400 122.000 C 142.960 121.997,142.060 121.637,141.400 121.200 C 140.740 120.763,139.727 120.404,139.149 120.403 C 138.571 120.401,137.878 120.135,137.609 119.811 C 137.340 119.486,136.463 119.110,135.660 118.973 C 134.857 118.837,133.712 118.382,133.116 117.963 C 132.520 117.543,131.588 117.200,131.045 117.200 C 130.502 117.200,129.792 116.935,129.468 116.611 C 129.144 116.287,128.160 115.860,127.281 115.663 C 126.402 115.465,125.265 115.010,124.753 114.652 C 124.241 114.293,123.501 114.000,123.110 114.000 C 122.718 114.000,121.725 113.640,120.904 113.200 C 120.084 112.760,119.078 112.400,118.669 112.400 C 118.260 112.400,117.469 112.040,116.909 111.600 C 116.350 111.160,115.421 110.799,114.846 110.797 C 114.271 110.796,113.260 110.437,112.600 110.000 C 111.940 109.563,111.040 109.203,110.600 109.200 C 110.160 109.197,109.260 108.837,108.600 108.400 C 107.940 107.963,107.040 107.603,106.600 107.600 C 106.160 107.597,105.260 107.237,104.600 106.800 C 103.940 106.363,103.040 106.003,102.600 106.000 C 102.160 105.997,101.260 105.637,100.600 105.200 C 99.940 104.763,98.929 104.404,98.354 104.403 C 97.779 104.401,96.850 104.040,96.291 103.600 C 95.731 103.160,94.820 102.800,94.265 102.800 C 93.711 102.800,92.992 102.535,92.668 102.211 C 92.344 101.887,91.360 101.460,90.481 101.263 C 89.602 101.065,88.465 100.610,87.953 100.252 C 87.441 99.893,86.657 99.599,86.211 99.597 C 85.765 99.596,84.860 99.237,84.200 98.800 C 83.540 98.363,82.640 98.003,82.200 98.000 C 81.760 97.997,80.860 97.637,80.200 97.200 C 79.540 96.763,78.527 96.404,77.949 96.403 C 77.371 96.401,76.678 96.135,76.409 95.811 C 76.140 95.486,75.263 95.105,74.460 94.962 C 73.657 94.819,72.439 94.365,71.753 93.951 C 71.067 93.538,70.167 93.199,69.753 93.197 C 69.339 93.196,68.460 92.837,67.800 92.400 C 67.140 91.963,66.240 91.603,65.800 91.600 C 65.360 91.597,64.460 91.237,63.800 90.800 C 63.140 90.363,62.150 90.000,61.600 89.994 C 61.050 89.987,60.150 89.630,59.600 89.200 C 58.839 88.605,57.963 88.416,55.931 88.409 L 53.262 88.400 51.634 90.300 " stroke="none" fill="#343533" fill-rule="evenodd"></path><path id="path2" d="M229.600 20.800 C 229.600 21.333,229.867 21.600,230.400 21.600 C 231.347 21.600,231.404 21.347,230.629 20.571 C 229.853 19.796,229.600 19.853,229.600 20.800 M170.500 20.900 C 170.752 21.657,172.000 21.764,172.000 21.029 C 172.000 20.658,171.658 20.400,171.167 20.400 C 170.678 20.400,170.402 20.607,170.500 20.900 M195.000 21.957 C 194.120 22.091,196.730 22.203,200.800 22.206 C 204.971 22.209,207.415 22.091,206.400 21.936 C 204.239 21.604,197.236 21.617,195.000 21.957 M166.000 22.600 C 166.000 22.930,166.270 23.200,166.600 23.200 C 166.930 23.200,167.200 22.930,167.200 22.600 C 167.200 22.270,166.930 22.000,166.600 22.000 C 166.270 22.000,166.000 22.270,166.000 22.600 M187.400 23.675 C 185.640 24.337,183.480 25.136,182.600 25.450 C 181.720 25.765,180.640 26.192,180.200 26.400 C 179.760 26.608,178.680 27.034,177.800 27.347 C 172.718 29.154,170.055 30.376,171.200 30.375 C 171.530 30.375,172.149 30.110,172.576 29.787 C 173.004 29.464,173.640 29.200,173.992 29.200 C 174.343 29.200,175.316 28.850,176.154 28.423 C 176.992 27.996,178.246 27.523,178.939 27.372 C 179.633 27.221,180.555 26.851,180.989 26.549 C 181.423 26.247,182.041 26.000,182.363 26.000 C 182.684 26.000,183.679 25.662,184.574 25.248 C 186.751 24.242,189.842 23.202,191.800 22.816 L 193.400 22.500 192.000 22.486 C 191.230 22.478,189.160 23.013,187.400 23.675 M210.200 23.043 C 211.300 23.367,212.920 23.825,213.800 24.061 C 214.680 24.298,216.132 24.831,217.026 25.246 C 217.921 25.661,218.828 26.000,219.042 26.000 C 219.256 26.000,220.137 26.360,221.000 26.800 C 221.863 27.240,222.763 27.600,223.000 27.600 C 223.237 27.600,224.137 27.960,225.000 28.400 C 225.863 28.840,226.818 29.200,227.123 29.200 C 227.427 29.200,228.154 29.451,228.738 29.757 C 229.322 30.063,231.150 30.810,232.800 31.416 C 234.450 32.023,236.532 32.852,237.426 33.260 C 238.321 33.667,239.345 34.000,239.703 34.000 C 240.060 34.000,240.463 34.178,240.597 34.395 C 240.731 34.612,241.818 35.074,243.013 35.421 C 244.208 35.768,245.289 36.221,245.416 36.426 C 245.543 36.632,245.952 36.795,246.324 36.788 C 247.225 36.772,246.182 36.157,243.525 35.138 C 242.466 34.732,240.655 34.021,239.500 33.558 C 238.345 33.095,236.680 32.463,235.800 32.153 C 234.920 31.843,233.722 31.322,233.138 30.995 C 232.554 30.668,231.862 30.400,231.599 30.400 C 231.336 30.400,230.554 30.138,229.860 29.818 C 229.167 29.498,227.880 28.977,227.000 28.660 C 226.120 28.343,224.410 27.686,223.200 27.200 C 221.990 26.714,220.280 26.059,219.400 25.745 C 218.520 25.431,217.260 24.923,216.600 24.617 C 214.620 23.698,210.211 22.398,209.172 22.427 C 208.556 22.444,208.934 22.670,210.200 23.043 M162.667 23.467 C 162.116 24.017,162.429 24.800,163.200 24.800 C 163.733 24.800,164.000 24.533,164.000 24.000 C 164.000 23.229,163.217 22.916,162.667 23.467 M237.600 24.000 C 237.600 24.533,237.867 24.800,238.400 24.800 C 239.307 24.800,239.425 24.385,238.720 23.680 C 238.015 22.975,237.600 23.093,237.600 24.000 M158.229 25.429 C 157.510 26.147,157.506 26.209,158.160 26.335 C 159.048 26.506,159.306 26.248,159.135 25.360 C 159.009 24.706,158.947 24.710,158.229 25.429 M242.288 25.614 C 242.401 26.046,242.732 26.400,243.023 26.400 C 243.777 26.400,243.999 25.870,243.442 25.400 C 242.607 24.695,242.073 24.793,242.288 25.614 M245.600 27.171 C 245.600 27.743,245.857 28.000,246.429 28.000 C 247.002 28.000,247.217 27.785,247.125 27.305 C 246.924 26.262,245.600 26.146,245.600 27.171 M150.080 28.480 C 149.375 29.185,149.493 29.600,150.400 29.600 C 150.933 29.600,151.200 29.333,151.200 28.800 C 151.200 27.893,150.785 27.775,150.080 28.480 M250.284 28.800 C 250.400 29.243,250.830 29.600,251.247 29.600 C 252.163 29.600,252.184 29.441,251.371 28.629 C 250.508 27.766,250.033 27.841,250.284 28.800 M253.600 30.371 C 253.600 30.943,253.857 31.200,254.429 31.200 C 255.454 31.200,255.338 29.876,254.295 29.675 C 253.815 29.583,253.600 29.798,253.600 30.371 M145.200 30.600 C 145.200 30.930,145.470 31.200,145.800 31.200 C 146.130 31.200,146.400 30.930,146.400 30.600 C 146.400 30.270,146.130 30.000,145.800 30.000 C 145.470 30.000,145.200 30.270,145.200 30.600 M167.800 31.200 C 166.920 31.625,165.980 31.979,165.711 31.986 C 165.442 31.994,164.452 32.351,163.511 32.780 C 162.570 33.209,160.540 34.032,159.000 34.608 C 157.460 35.185,155.633 35.913,154.940 36.228 C 154.246 36.543,153.486 36.800,153.250 36.800 C 153.014 36.800,152.052 37.148,151.111 37.574 C 150.170 38.000,148.320 38.739,147.000 39.217 C 145.680 39.694,144.060 40.330,143.400 40.629 C 142.740 40.929,141.390 41.465,140.400 41.821 C 136.283 43.303,135.339 43.664,134.140 44.218 C 133.446 44.538,132.681 44.800,132.438 44.800 C 132.196 44.800,131.325 45.160,130.504 45.600 C 129.684 46.040,128.789 46.400,128.517 46.400 C 128.244 46.400,127.252 46.748,126.311 47.174 C 125.370 47.600,123.520 48.339,122.200 48.817 C 120.880 49.294,119.260 49.930,118.600 50.229 C 117.940 50.529,116.680 51.034,115.800 51.352 C 114.920 51.671,113.390 52.225,112.400 52.583 C 111.410 52.942,110.033 53.498,109.340 53.818 C 108.646 54.138,107.864 54.400,107.601 54.400 C 107.338 54.400,106.646 54.668,106.062 54.995 C 105.478 55.322,104.190 55.877,103.200 56.229 C 99.440 57.566,98.162 58.054,96.940 58.618 C 96.246 58.938,95.464 59.200,95.201 59.200 C 94.938 59.200,94.246 59.468,93.662 59.795 C 93.078 60.122,91.790 60.677,90.800 61.029 C 87.040 62.366,85.762 62.854,84.540 63.418 C 83.846 63.738,83.064 64.000,82.801 64.000 C 82.538 64.000,81.846 64.268,81.262 64.595 C 80.678 64.922,79.435 65.462,78.500 65.795 C 74.610 67.180,73.336 67.665,72.140 68.218 C 71.446 68.538,70.686 68.800,70.450 68.800 C 69.995 68.800,67.304 69.948,64.513 71.332 C 59.111 74.012,60.920 77.178,69.900 80.762 C 73.703 82.280,75.971 83.188,78.100 84.047 C 79.255 84.513,81.010 85.215,82.000 85.607 C 84.181 86.472,88.555 88.277,90.200 88.990 C 90.860 89.277,91.850 89.645,92.400 89.809 C 92.950 89.973,93.755 90.354,94.189 90.654 C 94.623 90.954,95.256 91.200,95.595 91.200 C 95.934 91.200,96.884 91.560,97.704 92.000 C 98.525 92.440,99.425 92.800,99.704 92.800 C 99.984 92.800,100.884 93.160,101.704 93.600 C 102.525 94.040,103.403 94.400,103.655 94.400 C 103.906 94.400,104.852 94.738,105.756 95.152 C 107.303 95.860,108.828 96.491,113.600 98.400 C 118.888 100.515,119.920 100.938,121.511 101.643 C 122.452 102.059,123.442 102.398,123.711 102.396 C 124.282 102.392,120.401 100.431,119.785 100.413 C 119.556 100.406,118.663 100.040,117.800 99.600 C 116.937 99.160,116.037 98.800,115.800 98.800 C 115.563 98.800,114.663 98.440,113.800 98.000 C 112.937 97.560,112.037 97.200,111.800 97.200 C 111.563 97.200,110.663 96.840,109.800 96.400 C 108.937 95.960,107.920 95.600,107.539 95.600 C 107.159 95.600,106.744 95.433,106.618 95.229 C 106.492 95.025,105.716 94.647,104.894 94.389 C 103.517 93.957,101.655 93.193,98.600 91.805 C 97.940 91.506,96.728 91.054,95.906 90.801 C 95.084 90.548,94.308 90.175,94.182 89.971 C 94.056 89.767,93.641 89.600,93.261 89.600 C 92.880 89.600,91.863 89.240,91.000 88.800 C 90.137 88.360,89.244 87.998,89.015 87.996 C 88.787 87.994,87.700 87.550,86.600 87.009 C 85.500 86.468,84.374 86.019,84.099 86.013 C 83.823 86.006,82.925 85.640,82.104 85.200 C 81.284 84.760,80.422 84.400,80.191 84.400 C 79.959 84.400,79.063 84.040,78.200 83.600 C 77.337 83.160,76.320 82.800,75.939 82.800 C 75.559 82.800,75.144 82.633,75.018 82.429 C 74.892 82.225,74.116 81.852,73.294 81.599 C 72.472 81.346,71.260 80.893,70.600 80.591 C 69.940 80.289,68.325 79.559,67.011 78.967 C 63.926 77.579,62.517 76.519,62.228 75.370 C 61.958 74.292,62.711 72.400,63.410 72.400 C 63.675 72.400,64.350 72.040,64.909 71.600 C 65.469 71.160,66.175 70.800,66.479 70.800 C 66.782 70.800,67.716 70.450,68.554 70.023 C 69.392 69.596,70.646 69.123,71.339 68.972 C 72.033 68.821,72.955 68.451,73.389 68.149 C 73.823 67.847,74.460 67.600,74.804 67.600 C 75.149 67.600,76.137 67.240,77.000 66.800 C 77.863 66.360,78.763 66.000,79.000 66.000 C 79.237 66.000,80.116 65.650,80.954 65.223 C 81.792 64.796,83.046 64.323,83.739 64.172 C 84.433 64.021,85.355 63.651,85.789 63.349 C 86.223 63.047,86.860 62.800,87.204 62.800 C 87.549 62.800,88.537 62.440,89.400 62.000 C 90.263 61.560,91.163 61.200,91.400 61.200 C 91.637 61.200,92.516 60.850,93.354 60.423 C 94.192 59.996,95.446 59.523,96.139 59.372 C 96.833 59.221,97.755 58.851,98.189 58.549 C 98.623 58.247,99.241 58.000,99.563 58.000 C 99.884 58.000,100.879 57.667,101.774 57.260 C 102.668 56.852,104.750 56.023,106.400 55.416 C 108.050 54.810,109.878 54.063,110.462 53.757 C 111.046 53.451,111.754 53.200,112.035 53.200 C 112.317 53.200,113.279 52.867,114.174 52.460 C 115.068 52.052,117.150 51.223,118.800 50.616 C 120.450 50.010,122.278 49.263,122.862 48.957 C 123.446 48.651,124.154 48.400,124.435 48.400 C 124.717 48.400,125.679 48.067,126.574 47.660 C 127.468 47.252,129.550 46.423,131.200 45.816 C 132.850 45.210,134.678 44.463,135.262 44.157 C 135.846 43.851,136.573 43.600,136.877 43.600 C 137.182 43.600,138.116 43.250,138.954 42.823 C 139.792 42.396,141.046 41.923,141.739 41.772 C 142.433 41.621,143.355 41.251,143.789 40.949 C 144.223 40.647,144.856 40.400,145.195 40.400 C 145.534 40.400,146.484 40.040,147.304 39.600 C 148.125 39.160,149.030 38.800,149.314 38.800 C 149.598 38.800,150.516 38.450,151.354 38.023 C 152.192 37.596,153.383 37.136,154.000 37.000 C 154.617 36.864,155.808 36.404,156.646 35.977 C 157.484 35.550,158.446 35.194,158.785 35.187 C 159.123 35.180,159.749 34.910,160.176 34.587 C 160.604 34.264,161.240 34.000,161.592 34.000 C 161.943 34.000,162.916 33.650,163.754 33.223 C 164.592 32.796,165.783 32.336,166.400 32.200 C 167.779 31.897,170.793 30.395,169.985 30.414 C 169.663 30.421,168.680 30.775,167.800 31.200 M141.600 32.000 C 141.600 32.533,141.867 32.800,142.400 32.800 C 142.933 32.800,143.200 32.533,143.200 32.000 C 143.200 31.467,142.933 31.200,142.400 31.200 C 141.867 31.200,141.600 31.467,141.600 32.000 M258.400 32.035 C 258.400 32.522,258.678 32.800,259.165 32.800 C 260.116 32.800,260.028 31.510,259.067 31.369 C 258.643 31.306,258.400 31.549,258.400 32.035 M137.400 33.600 C 136.697 34.376,136.701 34.400,137.538 34.400 C 138.133 34.400,138.400 34.153,138.400 33.600 C 138.400 33.160,138.338 32.800,138.262 32.800 C 138.186 32.800,137.798 33.160,137.400 33.600 M266.400 35.200 C 266.400 35.733,266.667 36.000,267.200 36.000 C 268.107 36.000,268.225 35.585,267.520 34.880 C 266.815 34.175,266.400 34.293,266.400 35.200 M129.280 36.480 C 128.586 37.174,128.690 37.600,129.553 37.600 C 129.970 37.600,130.400 37.243,130.516 36.800 C 130.750 35.905,130.039 35.721,129.280 36.480 M248.554 37.577 C 249.392 38.004,250.583 38.464,251.200 38.600 C 251.817 38.736,253.008 39.196,253.846 39.623 C 254.684 40.050,255.680 40.400,256.061 40.400 C 256.441 40.400,256.861 40.575,256.994 40.790 C 257.126 41.004,258.082 41.436,259.117 41.749 C 260.153 42.062,261.540 42.606,262.200 42.957 C 262.860 43.308,263.642 43.596,263.938 43.598 C 264.234 43.599,264.954 43.851,265.538 44.157 C 266.122 44.463,267.950 45.210,269.600 45.816 C 271.250 46.423,273.332 47.252,274.226 47.660 C 275.121 48.067,276.066 48.400,276.328 48.400 C 276.589 48.400,277.475 48.760,278.296 49.200 C 279.116 49.640,280.033 50.000,280.332 50.000 C 280.632 50.000,281.354 50.251,281.938 50.557 C 282.522 50.863,284.350 51.610,286.000 52.216 C 287.650 52.823,289.732 53.652,290.626 54.060 C 291.521 54.467,292.545 54.800,292.903 54.800 C 293.260 54.800,293.663 54.978,293.797 55.195 C 293.931 55.412,295.018 55.874,296.213 56.221 C 297.408 56.568,298.489 57.021,298.616 57.226 C 298.743 57.432,299.140 57.600,299.497 57.600 C 299.855 57.600,300.879 57.933,301.774 58.340 C 302.668 58.748,304.750 59.584,306.400 60.200 C 308.050 60.816,310.132 61.652,311.026 62.060 C 311.921 62.467,312.866 62.800,313.128 62.800 C 313.389 62.800,314.275 63.160,315.096 63.600 C 315.916 64.040,316.833 64.400,317.132 64.400 C 317.432 64.400,318.154 64.651,318.738 64.957 C 319.322 65.263,321.150 66.010,322.800 66.616 C 324.450 67.223,326.532 68.052,327.426 68.460 C 328.321 68.867,329.228 69.200,329.442 69.200 C 329.656 69.200,330.537 69.560,331.400 70.000 C 332.263 70.440,333.269 70.800,333.636 70.800 C 334.002 70.800,334.520 71.063,334.787 71.385 C 335.054 71.706,335.642 72.086,336.094 72.230 C 338.778 73.082,339.524 76.171,337.500 78.055 C 336.191 79.273,331.805 81.589,330.761 81.613 C 330.453 81.620,329.851 81.890,329.424 82.213 C 328.996 82.536,328.378 82.800,328.050 82.800 C 327.721 82.800,326.721 83.134,325.826 83.542 C 324.932 83.951,323.071 84.714,321.691 85.239 C 320.310 85.764,319.357 86.252,319.572 86.324 C 319.788 86.396,320.557 86.180,321.282 85.845 C 322.525 85.270,323.190 85.015,327.600 83.417 C 328.590 83.058,329.967 82.502,330.660 82.182 C 331.354 81.862,332.102 81.600,332.324 81.600 C 333.266 81.600,336.924 79.364,338.015 78.121 C 340.747 75.011,338.872 72.520,331.600 69.599 C 330.390 69.113,328.630 68.374,327.689 67.957 C 326.748 67.541,325.756 67.200,325.483 67.200 C 325.211 67.200,324.316 66.840,323.496 66.400 C 322.675 65.960,321.804 65.600,321.562 65.600 C 321.319 65.600,320.554 65.343,319.860 65.028 C 319.167 64.713,317.340 63.985,315.800 63.408 C 314.260 62.832,312.230 62.009,311.289 61.580 C 310.348 61.151,309.356 60.800,309.083 60.800 C 308.811 60.800,307.916 60.440,307.096 60.000 C 306.275 59.560,305.404 59.200,305.162 59.200 C 304.919 59.200,304.154 58.943,303.460 58.628 C 302.767 58.313,300.940 57.583,299.400 57.004 C 296.201 55.802,293.361 54.652,290.889 53.557 C 289.948 53.141,288.956 52.800,288.683 52.800 C 288.411 52.800,287.516 52.440,286.696 52.000 C 285.875 51.560,285.004 51.200,284.762 51.200 C 284.519 51.200,283.754 50.938,283.060 50.618 C 282.367 50.298,281.080 49.777,280.200 49.460 C 279.320 49.143,277.610 48.486,276.400 48.000 C 275.190 47.514,273.480 46.863,272.600 46.553 C 271.720 46.243,270.522 45.722,269.938 45.395 C 269.354 45.068,268.662 44.800,268.399 44.800 C 268.136 44.800,267.354 44.538,266.660 44.218 C 265.967 43.898,264.680 43.377,263.800 43.060 C 262.920 42.743,261.210 42.086,260.000 41.600 C 258.790 41.114,257.080 40.463,256.200 40.153 C 255.320 39.843,254.122 39.322,253.538 38.995 C 252.954 38.668,252.234 38.394,251.938 38.386 C 251.642 38.379,250.680 38.025,249.800 37.600 C 247.706 36.588,246.574 36.567,248.554 37.577 M274.400 38.400 C 274.400 38.933,274.667 39.200,275.200 39.200 C 276.107 39.200,276.225 38.785,275.520 38.080 C 274.815 37.375,274.400 37.493,274.400 38.400 M121.300 39.465 C 120.520 39.780,120.713 40.800,121.553 40.800 C 121.970 40.800,122.400 40.443,122.516 40.000 C 122.722 39.213,122.340 39.045,121.300 39.465 M279.200 40.200 C 279.200 40.530,279.470 40.800,279.800 40.800 C 280.130 40.800,280.400 40.530,280.400 40.200 C 280.400 39.870,280.130 39.600,279.800 39.600 C 279.470 39.600,279.200 39.870,279.200 40.200 M116.629 41.429 C 115.816 42.241,115.837 42.400,116.753 42.400 C 117.170 42.400,117.600 42.043,117.716 41.600 C 117.967 40.641,117.492 40.566,116.629 41.429 M282.400 41.600 C 282.400 42.147,282.667 42.400,283.243 42.400 C 283.847 42.400,284.017 42.221,283.843 41.767 C 283.709 41.419,283.600 41.059,283.600 40.967 C 283.600 40.875,283.330 40.800,283.000 40.800 C 282.667 40.800,282.400 41.156,282.400 41.600 M113.067 42.667 C 112.516 43.217,112.829 44.000,113.600 44.000 C 114.133 44.000,114.400 43.733,114.400 43.200 C 114.400 42.429,113.617 42.116,113.067 42.667 M287.084 43.200 C 287.200 43.643,287.630 44.000,288.047 44.000 C 288.963 44.000,288.984 43.841,288.171 43.029 C 287.308 42.166,286.833 42.241,287.084 43.200 M108.449 44.541 C 107.963 45.127,108.239 45.600,109.067 45.600 C 109.663 45.600,109.797 44.569,109.245 44.228 C 109.050 44.107,108.692 44.248,108.449 44.541 M290.400 44.771 C 290.400 45.343,290.657 45.600,291.229 45.600 C 291.802 45.600,292.017 45.385,291.925 44.905 C 291.724 43.862,290.400 43.746,290.400 44.771 M295.055 45.879 C 294.649 46.284,295.309 47.200,296.007 47.200 C 296.907 47.200,296.805 45.906,295.894 45.773 C 295.542 45.721,295.165 45.769,295.055 45.879 M100.480 47.680 C 99.775 48.385,99.893 48.800,100.800 48.800 C 101.333 48.800,101.600 48.533,101.600 48.000 C 101.600 47.093,101.185 46.975,100.480 47.680 M303.200 49.600 C 303.200 50.133,303.467 50.400,304.000 50.400 C 304.907 50.400,305.025 49.985,304.320 49.280 C 303.615 48.575,303.200 48.693,303.200 49.600 M95.600 49.800 C 95.600 50.130,95.870 50.400,96.200 50.400 C 96.530 50.400,96.800 50.130,96.800 49.800 C 96.800 49.470,96.530 49.200,96.200 49.200 C 95.870 49.200,95.600 49.470,95.600 49.800 M92.000 51.200 C 92.000 51.733,92.267 52.000,92.800 52.000 C 93.333 52.000,93.600 51.733,93.600 51.200 C 93.600 50.667,93.333 50.400,92.800 50.400 C 92.267 50.400,92.000 50.667,92.000 51.200 M87.569 52.167 C 87.126 52.650,87.435 53.600,88.035 53.600 C 88.510 53.600,88.800 53.322,88.800 52.867 C 88.800 52.327,87.895 51.812,87.569 52.167 M311.200 52.800 C 311.200 53.333,311.467 53.600,312.000 53.600 C 312.907 53.600,313.025 53.185,312.320 52.480 C 311.615 51.775,311.200 51.893,311.200 52.800 M316.000 54.600 C 316.000 54.930,316.270 55.200,316.600 55.200 C 316.930 55.200,317.200 54.930,317.200 54.600 C 317.200 54.270,316.930 54.000,316.600 54.000 C 316.270 54.000,316.000 54.270,316.000 54.600 M79.680 55.680 C 78.986 56.374,79.090 56.800,79.953 56.800 C 80.370 56.800,80.800 56.443,80.916 56.000 C 81.150 55.105,80.439 54.921,79.680 55.680 M319.200 56.000 C 319.200 56.547,319.467 56.800,320.043 56.800 C 320.647 56.800,320.817 56.621,320.643 56.167 C 320.509 55.819,320.400 55.459,320.400 55.367 C 320.400 55.275,320.130 55.200,319.800 55.200 C 319.467 55.200,319.200 55.556,319.200 56.000 M74.906 57.424 C 74.410 57.956,74.644 58.400,75.420 58.400 C 75.688 58.400,75.993 58.070,76.098 57.667 C 76.316 56.834,75.595 56.687,74.906 57.424 M324.000 57.600 C 324.235 58.040,324.720 58.400,325.076 58.400 C 325.648 58.400,325.639 58.306,325.000 57.600 C 324.602 57.160,324.118 56.800,323.924 56.800 C 323.730 56.800,323.765 57.160,324.000 57.600 M71.467 58.667 C 70.916 59.217,71.229 60.000,72.000 60.000 C 72.533 60.000,72.800 59.733,72.800 59.200 C 72.800 58.429,72.017 58.116,71.467 58.667 M327.200 59.171 C 327.200 59.743,327.457 60.000,328.029 60.000 C 328.602 60.000,328.817 59.785,328.725 59.305 C 328.524 58.262,327.200 58.146,327.200 59.171 M67.000 60.800 C 66.361 61.506,66.352 61.600,66.924 61.600 C 67.280 61.600,67.765 61.240,68.000 60.800 C 68.235 60.360,68.270 60.000,68.076 60.000 C 67.882 60.000,67.398 60.360,67.000 60.800 M332.000 60.813 C 332.000 61.329,332.271 61.600,332.787 61.600 C 333.304 61.600,333.500 61.404,333.357 61.031 C 332.993 60.085,332.000 59.925,332.000 60.813 M64.157 62.188 C 64.302 63.175,64.800 63.390,64.800 62.467 C 64.800 61.990,64.636 61.600,64.435 61.600 C 64.235 61.600,64.110 61.865,64.157 62.188 M316.800 87.003 C 316.250 87.294,314.450 88.017,312.800 88.610 C 311.150 89.202,309.322 89.937,308.738 90.243 C 308.154 90.549,307.427 90.800,307.123 90.800 C 306.818 90.800,305.884 91.150,305.046 91.577 C 304.208 92.004,303.017 92.464,302.400 92.600 C 301.055 92.895,298.008 94.400,298.755 94.400 C 299.043 94.400,299.846 94.138,300.540 93.818 C 301.233 93.498,302.565 92.958,303.500 92.618 C 304.435 92.278,305.965 91.722,306.900 91.382 C 307.835 91.042,309.167 90.502,309.860 90.182 C 310.554 89.862,311.319 89.600,311.562 89.600 C 311.804 89.600,312.675 89.240,313.496 88.800 C 314.316 88.360,315.261 87.992,315.594 87.983 C 315.927 87.974,316.830 87.622,317.600 87.200 C 318.370 86.778,318.730 86.442,318.400 86.453 C 318.070 86.464,317.350 86.712,316.800 87.003 M53.503 87.687 C 51.575 88.191,49.985 90.208,48.860 93.578 L 48.000 96.155 48.000 179.663 C 48.000 272.134,47.844 266.239,50.439 271.844 C 50.858 272.748,51.200 273.597,51.200 273.731 C 51.200 275.257,56.766 281.164,58.800 281.797 C 59.350 281.968,60.155 282.354,60.589 282.654 C 61.023 282.954,61.653 283.201,61.989 283.202 C 62.325 283.204,63.140 283.488,63.800 283.835 C 64.460 284.182,65.630 284.700,66.400 284.987 C 70.385 286.472,76.246 288.919,76.580 289.237 C 76.789 289.437,77.242 289.600,77.586 289.600 C 77.930 289.600,78.884 289.960,79.704 290.400 C 80.525 290.840,81.423 291.201,81.699 291.202 C 81.974 291.204,82.740 291.488,83.400 291.835 C 84.060 292.182,85.230 292.697,86.000 292.981 C 89.050 294.106,94.658 296.441,95.662 297.004 C 96.246 297.332,96.968 297.600,97.268 297.600 C 97.567 297.600,98.484 297.960,99.304 298.400 C 100.125 298.840,101.023 299.201,101.299 299.202 C 101.574 299.204,102.340 299.488,103.000 299.835 C 103.660 300.182,104.830 300.697,105.600 300.981 C 108.650 302.106,114.258 304.441,115.262 305.004 C 115.846 305.332,116.568 305.600,116.868 305.600 C 117.167 305.600,118.084 305.960,118.904 306.400 C 119.725 306.840,120.623 307.201,120.899 307.202 C 121.174 307.204,121.940 307.488,122.600 307.835 C 123.260 308.182,124.430 308.697,125.200 308.981 C 128.250 310.106,133.858 312.441,134.862 313.004 C 135.446 313.332,136.168 313.600,136.468 313.600 C 136.767 313.600,137.684 313.960,138.504 314.400 C 139.325 314.840,140.223 315.201,140.499 315.202 C 140.774 315.204,141.540 315.488,142.200 315.835 C 142.860 316.182,144.030 316.697,144.800 316.981 C 147.850 318.106,153.458 320.441,154.462 321.004 C 155.046 321.332,155.768 321.600,156.068 321.600 C 156.367 321.600,157.284 321.960,158.104 322.400 C 158.925 322.840,159.823 323.201,160.099 323.202 C 160.374 323.204,161.140 323.488,161.800 323.835 C 162.460 324.182,163.630 324.697,164.400 324.981 C 167.450 326.106,173.058 328.441,174.062 329.004 C 174.646 329.332,175.368 329.600,175.668 329.600 C 175.967 329.600,176.884 329.960,177.704 330.400 C 178.525 330.840,179.423 331.206,179.699 331.214 C 179.974 331.221,180.920 331.575,181.800 332.000 C 186.375 334.210,191.412 332.070,194.281 326.696 L 195.400 324.600 195.400 239.400 L 195.400 154.200 194.297 151.125 C 190.750 141.233,186.839 137.740,173.800 132.818 C 171.380 131.904,168.630 130.807,167.689 130.378 C 166.748 129.950,165.756 129.600,165.483 129.600 C 165.211 129.600,164.316 129.240,163.496 128.800 C 162.675 128.360,161.797 128.000,161.545 128.000 C 161.294 128.000,160.348 127.661,159.444 127.246 C 157.508 126.358,149.840 123.397,148.400 122.981 C 147.850 122.822,147.045 122.446,146.611 122.146 C 146.177 121.846,145.544 121.600,145.205 121.600 C 144.866 121.600,143.916 121.240,143.096 120.800 C 142.275 120.360,141.397 120.000,141.145 120.000 C 140.894 120.000,139.948 119.662,139.044 119.249 C 138.140 118.836,136.320 118.105,135.000 117.623 C 133.680 117.142,131.830 116.400,130.889 115.974 C 129.948 115.548,128.956 115.200,128.683 115.200 C 128.411 115.200,127.516 114.840,126.696 114.400 C 125.875 113.960,124.997 113.600,124.745 113.600 C 124.494 113.600,123.548 113.260,122.644 112.844 C 121.740 112.428,118.750 111.238,116.000 110.200 C 113.250 109.163,110.522 108.063,109.938 107.757 C 109.354 107.451,108.632 107.200,108.332 107.200 C 108.033 107.200,107.116 106.840,106.296 106.400 C 105.475 105.960,104.597 105.600,104.345 105.600 C 104.094 105.600,103.148 105.261,102.244 104.846 C 100.308 103.958,92.640 100.997,91.200 100.581 C 90.650 100.422,89.845 100.046,89.411 99.746 C 88.977 99.446,88.344 99.200,88.005 99.200 C 87.666 99.200,86.716 98.840,85.896 98.400 C 85.075 97.960,84.197 97.600,83.945 97.600 C 83.694 97.600,82.748 97.261,81.844 96.846 C 79.908 95.958,72.240 92.997,70.800 92.581 C 70.250 92.422,69.445 92.046,69.011 91.746 C 68.577 91.446,67.947 91.199,67.611 91.198 C 67.275 91.196,66.460 90.908,65.800 90.558 C 65.140 90.208,63.880 89.682,63.000 89.389 C 62.120 89.097,60.680 88.599,59.800 88.281 C 57.498 87.452,55.223 87.237,53.503 87.687 M59.600 89.200 C 60.150 89.630,61.050 89.987,61.600 89.994 C 62.150 90.000,63.140 90.363,63.800 90.800 C 64.460 91.237,65.360 91.597,65.800 91.600 C 66.240 91.603,67.140 91.963,67.800 92.400 C 68.460 92.837,69.339 93.196,69.753 93.197 C 70.167 93.199,71.067 93.538,71.753 93.951 C 72.439 94.365,73.657 94.819,74.460 94.962 C 75.263 95.105,76.140 95.486,76.409 95.811 C 76.678 96.135,77.371 96.401,77.949 96.403 C 78.527 96.404,79.540 96.763,80.200 97.200 C 80.860 97.637,81.760 97.997,82.200 98.000 C 82.640 98.003,83.540 98.363,84.200 98.800 C 84.860 99.237,85.765 99.596,86.211 99.597 C 86.657 99.599,87.441 99.893,87.953 100.252 C 88.465 100.610,89.602 101.065,90.481 101.263 C 91.360 101.460,92.344 101.887,92.668 102.211 C 92.992 102.535,93.711 102.800,94.265 102.800 C 94.820 102.800,95.731 103.160,96.291 103.600 C 96.850 104.040,97.779 104.401,98.354 104.403 C 98.929 104.404,99.940 104.763,100.600 105.200 C 101.260 105.637,102.160 105.997,102.600 106.000 C 103.040 106.003,103.940 106.363,104.600 106.800 C 105.260 107.237,106.160 107.597,106.600 107.600 C 107.040 107.603,107.940 107.963,108.600 108.400 C 109.260 108.837,110.160 109.197,110.600 109.200 C 111.040 109.203,111.940 109.563,112.600 110.000 C 113.260 110.437,114.271 110.796,114.846 110.797 C 115.421 110.799,116.350 111.160,116.909 111.600 C 117.469 112.040,118.260 112.400,118.669 112.400 C 119.078 112.400,120.084 112.760,120.904 113.200 C 121.725 113.640,122.718 114.000,123.110 114.000 C 123.501 114.000,124.241 114.293,124.753 114.652 C 125.265 115.010,126.402 115.465,127.281 115.663 C 128.160 115.860,129.144 116.287,129.468 116.611 C 129.792 116.935,130.502 117.200,131.045 117.200 C 131.588 117.200,132.520 117.543,133.116 117.963 C 133.712 118.382,134.857 118.837,135.660 118.973 C 136.463 119.110,137.340 119.486,137.609 119.811 C 137.878 120.135,138.571 120.401,139.149 120.403 C 139.727 120.404,140.740 120.763,141.400 121.200 C 142.060 121.637,142.960 121.997,143.400 122.000 C 143.840 122.003,144.740 122.363,145.400 122.800 C 146.060 123.237,146.960 123.597,147.400 123.600 C 147.840 123.603,148.740 123.963,149.400 124.400 C 150.060 124.837,151.067 125.196,151.639 125.197 C 152.210 125.199,153.093 125.560,153.600 126.000 C 154.107 126.440,154.903 126.800,155.367 126.800 C 155.832 126.800,156.884 127.160,157.704 127.600 C 158.525 128.040,159.513 128.401,159.899 128.403 C 160.284 128.404,161.140 128.763,161.800 129.200 C 162.460 129.637,163.360 129.997,163.800 130.000 C 164.240 130.003,165.140 130.363,165.800 130.800 C 166.460 131.237,167.412 131.596,167.916 131.597 C 168.420 131.599,169.320 131.943,169.916 132.363 C 170.512 132.782,171.657 133.237,172.460 133.373 C 173.263 133.510,174.140 133.886,174.409 134.211 C 174.678 134.535,175.371 134.801,175.949 134.803 C 176.527 134.804,177.540 135.163,178.200 135.600 C 178.860 136.037,179.781 136.396,180.246 136.397 C 180.711 136.399,181.550 136.760,182.109 137.200 C 182.669 137.640,183.297 138.000,183.505 138.000 C 183.713 138.000,184.369 138.450,184.962 139.000 C 185.556 139.550,186.212 140.000,186.421 140.000 C 186.629 140.000,186.800 140.157,186.800 140.349 C 186.800 140.542,187.520 141.487,188.400 142.449 C 189.280 143.412,190.000 144.397,190.000 144.638 C 190.000 144.879,190.360 145.402,190.800 145.800 C 191.240 146.198,191.601 146.811,191.603 147.162 C 191.604 147.513,191.963 148.340,192.400 149.000 C 192.837 149.660,193.202 150.740,193.211 151.400 C 193.220 152.060,193.575 153.320,194.000 154.200 C 195.213 156.712,195.213 321.688,194.000 324.200 C 193.575 325.080,193.221 326.100,193.214 326.466 C 193.155 329.323,186.395 332.846,183.673 331.438 C 182.995 331.087,182.026 330.799,181.520 330.797 C 181.014 330.796,180.060 330.437,179.400 330.000 C 178.740 329.563,177.861 329.204,177.447 329.203 C 177.033 329.201,176.133 328.859,175.447 328.443 C 174.761 328.027,173.627 327.565,172.928 327.417 C 172.228 327.270,171.441 326.890,171.179 326.574 C 170.917 326.258,170.243 326.000,169.683 326.000 C 169.122 326.000,168.347 325.714,167.960 325.364 C 167.574 325.014,166.507 324.559,165.589 324.353 C 164.672 324.147,163.656 323.713,163.332 323.389 C 163.008 323.065,162.351 322.799,161.871 322.797 C 161.392 322.796,160.460 322.437,159.800 322.000 C 159.140 321.563,158.240 321.203,157.800 321.200 C 157.360 321.197,156.460 320.837,155.800 320.400 C 155.140 319.963,154.219 319.604,153.754 319.603 C 153.289 319.601,152.479 319.266,151.954 318.858 C 151.429 318.450,150.343 317.995,149.540 317.847 C 148.737 317.700,147.860 317.314,147.591 316.989 C 147.322 316.665,146.657 316.400,146.114 316.400 C 145.571 316.400,144.669 316.040,144.109 315.600 C 143.550 315.160,142.711 314.799,142.246 314.797 C 141.781 314.796,140.860 314.437,140.200 314.000 C 139.540 313.563,138.640 313.203,138.200 313.200 C 137.760 313.197,136.860 312.837,136.200 312.400 C 135.540 311.963,134.619 311.604,134.154 311.603 C 133.689 311.601,132.879 311.268,132.354 310.862 C 131.829 310.456,130.805 310.009,130.077 309.867 C 129.349 309.726,128.481 309.338,128.148 309.005 C 127.815 308.672,127.151 308.399,126.671 308.397 C 126.192 308.396,125.260 308.037,124.600 307.600 C 123.940 307.163,123.040 306.803,122.600 306.800 C 122.160 306.797,121.260 306.437,120.600 306.000 C 119.940 305.563,119.061 305.204,118.647 305.203 C 118.233 305.201,117.333 304.859,116.647 304.443 C 115.961 304.027,114.827 303.565,114.128 303.417 C 113.428 303.270,112.641 302.890,112.379 302.574 C 112.117 302.258,111.457 302.000,110.914 302.000 C 110.371 302.000,109.469 301.640,108.909 301.200 C 108.350 300.760,107.511 300.399,107.046 300.397 C 106.581 300.396,105.660 300.037,105.000 299.600 C 104.340 299.163,103.440 298.803,103.000 298.800 C 102.560 298.797,101.660 298.437,101.000 298.000 C 100.340 297.563,99.461 297.204,99.047 297.203 C 98.633 297.201,97.733 296.859,97.047 296.443 C 96.361 296.027,95.227 295.565,94.528 295.417 C 93.828 295.270,93.041 294.890,92.779 294.574 C 92.517 294.258,91.843 294.000,91.283 294.000 C 90.722 294.000,89.947 293.714,89.560 293.364 C 89.174 293.014,88.107 292.559,87.189 292.353 C 86.272 292.147,85.256 291.713,84.932 291.389 C 84.608 291.065,83.951 290.799,83.471 290.797 C 82.992 290.796,82.060 290.437,81.400 290.000 C 80.740 289.563,79.840 289.203,79.400 289.200 C 78.960 289.197,78.060 288.837,77.400 288.400 C 76.740 287.963,75.823 287.604,75.361 287.603 C 74.900 287.601,74.134 287.263,73.658 286.851 C 73.183 286.439,72.099 285.990,71.249 285.854 C 70.399 285.718,69.478 285.336,69.203 285.004 C 68.927 284.672,68.319 284.399,67.851 284.397 C 67.383 284.396,66.460 284.037,65.800 283.600 C 65.140 283.163,64.276 282.804,63.879 282.803 C 63.483 282.801,62.493 282.455,61.679 282.033 C 60.866 281.611,59.750 281.073,59.200 280.836 C 57.707 280.194,56.782 279.526,55.634 278.261 C 55.065 277.635,54.285 276.830,53.900 276.472 C 53.515 276.115,53.200 275.616,53.200 275.365 C 53.200 275.114,52.840 274.450,52.400 273.891 C 51.960 273.331,51.600 272.587,51.600 272.235 C 51.600 271.884,51.240 270.925,50.800 270.104 C 50.360 269.284,50.000 267.882,50.000 266.990 C 50.000 266.098,49.730 264.331,49.400 263.065 C 48.501 259.612,48.501 99.751,49.400 96.400 C 49.725 95.190,49.994 93.750,49.998 93.200 C 50.002 92.616,50.682 91.410,51.634 90.300 L 53.262 88.400 55.931 88.409 C 57.963 88.416,58.839 88.605,59.600 89.200 M296.000 94.969 C 295.450 95.271,293.650 96.005,292.000 96.602 C 290.350 97.198,288.522 97.937,287.938 98.243 C 287.354 98.549,286.627 98.800,286.323 98.800 C 286.018 98.800,285.084 99.150,284.246 99.577 C 283.408 100.004,282.154 100.477,281.461 100.628 C 280.767 100.779,279.845 101.149,279.411 101.451 C 278.977 101.753,278.340 102.000,277.996 102.000 C 277.651 102.000,276.684 102.350,275.846 102.777 C 275.008 103.204,273.817 103.664,273.200 103.800 C 271.855 104.095,268.808 105.600,269.555 105.600 C 269.843 105.600,270.646 105.338,271.340 105.018 C 272.529 104.469,273.201 104.211,277.600 102.617 C 278.590 102.258,279.967 101.702,280.660 101.382 C 281.354 101.062,282.114 100.800,282.350 100.800 C 282.586 100.800,283.548 100.452,284.489 100.026 C 285.430 99.600,287.280 98.858,288.600 98.377 C 289.920 97.895,291.740 97.164,292.644 96.751 C 293.548 96.338,294.538 95.992,294.844 95.983 C 295.629 95.960,298.330 94.435,297.600 94.427 C 297.270 94.424,296.550 94.668,296.000 94.969 M125.011 102.943 C 125.445 103.242,126.520 103.715,127.400 103.995 C 128.280 104.275,129.180 104.637,129.400 104.800 C 129.620 104.963,130.520 105.325,131.400 105.605 C 132.280 105.885,133.355 106.358,133.789 106.657 C 134.223 106.956,134.856 107.200,135.195 107.200 C 135.534 107.200,136.484 107.560,137.304 108.000 C 138.125 108.440,139.025 108.800,139.304 108.800 C 139.584 108.800,140.484 109.160,141.304 109.600 C 142.125 110.040,143.003 110.400,143.255 110.400 C 143.506 110.400,144.452 110.738,145.356 111.152 C 146.260 111.566,147.900 112.265,149.000 112.705 C 150.100 113.146,151.945 113.887,153.100 114.353 C 154.255 114.819,156.100 115.560,157.200 116.000 C 161.972 117.909,163.497 118.540,165.044 119.248 C 165.948 119.662,166.848 120.001,167.044 120.002 C 167.240 120.004,167.878 120.254,168.461 120.559 C 169.045 120.863,170.215 121.336,171.061 121.608 C 171.908 121.881,172.780 122.237,173.000 122.400 C 173.220 122.563,174.120 122.925,175.000 123.205 C 175.880 123.485,176.955 123.958,177.389 124.257 C 177.823 124.556,178.456 124.800,178.795 124.800 C 179.134 124.800,180.084 125.160,180.904 125.600 C 181.725 126.040,182.623 126.406,182.899 126.414 C 183.174 126.421,184.120 126.775,185.000 127.200 C 185.880 127.625,186.802 127.979,187.048 127.986 C 187.294 127.994,188.623 128.360,190.000 128.800 C 191.377 129.240,193.246 129.576,194.152 129.548 C 195.675 129.499,195.632 129.473,193.590 129.210 C 192.375 129.053,191.025 128.740,190.590 128.515 C 190.156 128.290,189.170 127.992,188.400 127.853 C 187.630 127.714,185.244 126.881,183.098 126.000 C 180.952 125.120,178.949 124.400,178.647 124.400 C 178.345 124.400,177.874 124.130,177.600 123.800 C 177.326 123.470,176.802 123.200,176.436 123.200 C 176.069 123.200,175.063 122.840,174.200 122.400 C 173.337 121.960,172.437 121.600,172.200 121.600 C 171.963 121.600,171.063 121.240,170.200 120.800 C 169.337 120.360,168.444 119.998,168.215 119.996 C 167.987 119.994,166.900 119.550,165.800 119.009 C 164.700 118.468,163.574 118.019,163.299 118.013 C 163.023 118.006,162.125 117.640,161.304 117.200 C 160.484 116.760,159.622 116.400,159.391 116.400 C 159.159 116.400,158.263 116.040,157.400 115.600 C 156.537 115.160,155.637 114.800,155.400 114.800 C 155.163 114.800,154.263 114.440,153.400 114.000 C 152.537 113.560,151.637 113.200,151.400 113.200 C 151.163 113.200,150.263 112.840,149.400 112.400 C 148.537 111.960,147.520 111.600,147.139 111.600 C 146.759 111.600,146.344 111.433,146.218 111.229 C 146.092 111.025,145.316 110.652,144.494 110.399 C 143.672 110.146,142.460 109.694,141.800 109.395 C 138.745 108.007,136.883 107.243,135.506 106.811 C 134.684 106.553,133.908 106.175,133.782 105.971 C 133.656 105.767,133.248 105.598,132.876 105.596 C 132.504 105.594,131.300 105.150,130.200 104.609 C 129.100 104.068,127.919 103.619,127.576 103.613 C 127.234 103.606,126.604 103.336,126.176 103.013 C 125.749 102.690,125.135 102.420,124.811 102.413 C 124.396 102.404,124.455 102.560,125.011 102.943 M267.024 106.213 C 266.596 106.536,265.960 106.800,265.608 106.800 C 265.257 106.800,264.284 107.150,263.446 107.577 C 262.608 108.004,261.354 108.477,260.661 108.628 C 259.967 108.779,259.045 109.149,258.611 109.451 C 258.177 109.753,257.540 110.000,257.196 110.000 C 256.851 110.000,255.884 110.350,255.046 110.777 C 254.208 111.204,252.954 111.677,252.261 111.828 C 251.567 111.979,250.645 112.349,250.211 112.651 C 249.777 112.953,249.159 113.200,248.837 113.200 C 248.516 113.200,247.521 113.531,246.626 113.935 C 244.683 114.813,240.993 116.224,239.600 116.622 C 239.050 116.779,238.245 117.154,237.811 117.454 C 237.377 117.754,236.740 118.000,236.396 118.000 C 236.051 118.000,235.084 118.350,234.246 118.777 C 233.408 119.204,232.154 119.677,231.461 119.828 C 230.767 119.979,229.845 120.349,229.411 120.651 C 228.977 120.953,228.340 121.200,227.996 121.200 C 227.651 121.200,226.684 121.550,225.846 121.977 C 225.008 122.404,223.754 122.877,223.061 123.028 C 222.367 123.179,221.445 123.549,221.011 123.851 C 220.577 124.153,219.940 124.400,219.596 124.400 C 219.251 124.400,218.263 124.760,217.400 125.200 C 216.537 125.640,215.683 126.000,215.503 126.000 C 215.322 126.000,214.505 126.305,213.687 126.678 C 212.869 127.051,211.840 127.483,211.400 127.638 C 210.674 127.894,210.668 127.924,211.338 127.960 C 211.744 127.982,212.554 127.732,213.138 127.405 C 213.722 127.078,214.920 126.554,215.800 126.240 C 220.270 124.645,221.062 124.349,221.800 124.000 C 222.240 123.792,223.365 123.347,224.300 123.011 C 228.498 121.502,229.478 121.128,230.660 120.582 C 231.354 120.262,232.114 120.000,232.350 120.000 C 232.586 120.000,233.548 119.652,234.489 119.226 C 235.430 118.800,237.280 118.061,238.600 117.583 C 239.920 117.106,241.540 116.470,242.200 116.171 C 243.337 115.655,244.147 115.348,248.400 113.824 C 249.390 113.469,250.560 113.008,251.000 112.800 C 251.440 112.592,252.565 112.147,253.500 111.811 C 257.698 110.302,258.678 109.928,259.860 109.382 C 260.554 109.062,261.319 108.800,261.562 108.800 C 261.804 108.800,262.675 108.440,263.496 108.000 C 264.316 107.560,265.261 107.192,265.594 107.183 C 266.408 107.161,269.164 105.635,268.400 105.629 C 268.070 105.627,267.451 105.890,267.024 106.213 M208.600 128.498 C 208.160 128.758,206.990 129.088,206.000 129.232 L 204.200 129.493 205.800 129.536 C 206.680 129.560,208.120 129.238,209.000 128.822 C 209.880 128.405,210.330 128.056,210.000 128.045 C 209.670 128.033,209.040 128.237,208.600 128.498 M197.900 129.895 C 199.055 129.976,200.945 129.976,202.100 129.895 C 203.255 129.814,202.310 129.748,200.000 129.748 C 197.690 129.748,196.745 129.814,197.900 129.895 " stroke="none" fill="#6c6e6d" fill-rule="evenodd"></path><path id="path3" d="M173.997 19.003 C 173.783 19.262,173.725 19.592,173.870 19.737 C 174.372 20.239,175.108 19.996,175.298 19.267 C 175.516 18.437,174.618 18.255,173.997 19.003 M226.284 19.200 C 226.400 19.643,226.830 20.000,227.247 20.000 C 228.163 20.000,228.184 19.841,227.371 19.029 C 226.508 18.166,226.033 18.241,226.284 19.200 M169.800 20.800 C 169.098 21.576,169.101 21.600,169.925 21.600 C 170.493 21.600,170.703 21.412,170.558 21.035 C 170.431 20.703,170.642 20.392,171.071 20.281 C 171.631 20.136,171.653 20.082,171.162 20.046 C 170.811 20.021,170.198 20.360,169.800 20.800 M165.738 22.217 C 165.608 22.557,165.613 22.947,165.751 23.084 C 165.888 23.221,166.000 23.047,166.000 22.696 C 166.000 22.345,166.315 21.976,166.700 21.876 C 167.356 21.704,167.355 21.690,166.687 21.646 C 166.296 21.621,165.868 21.878,165.738 22.217 M234.284 22.400 C 234.400 22.843,234.830 23.200,235.247 23.200 C 236.110 23.200,236.214 22.774,235.520 22.080 C 234.761 21.321,234.050 21.505,234.284 22.400 M194.245 22.445 C 192.289 22.661,190.219 23.077,189.645 23.370 C 189.070 23.664,188.033 24.026,187.339 24.175 C 186.646 24.324,185.392 24.796,184.554 25.223 C 183.716 25.650,182.749 26.000,182.404 26.000 C 182.060 26.000,181.423 26.247,180.989 26.549 C 180.555 26.851,179.633 27.221,178.939 27.372 C 178.246 27.523,176.992 27.996,176.154 28.423 C 175.316 28.850,174.343 29.200,173.992 29.200 C 173.640 29.200,173.004 29.464,172.576 29.787 C 172.149 30.110,171.523 30.380,171.185 30.387 C 170.846 30.394,169.884 30.750,169.046 31.177 C 168.208 31.604,167.017 32.064,166.400 32.200 C 165.783 32.336,164.592 32.796,163.754 33.223 C 162.916 33.650,161.943 34.000,161.592 34.000 C 161.240 34.000,160.604 34.264,160.176 34.587 C 159.749 34.910,159.123 35.180,158.785 35.187 C 158.446 35.194,157.484 35.550,156.646 35.977 C 155.808 36.404,154.617 36.864,154.000 37.000 C 153.383 37.136,152.192 37.596,151.354 38.023 C 150.516 38.450,149.598 38.800,149.314 38.800 C 149.030 38.800,148.125 39.160,147.304 39.600 C 146.484 40.040,145.534 40.400,145.195 40.400 C 144.856 40.400,144.223 40.647,143.789 40.949 C 143.355 41.251,142.433 41.621,141.739 41.772 C 141.046 41.923,139.792 42.396,138.954 42.823 C 138.116 43.250,137.182 43.600,136.877 43.600 C 136.573 43.600,135.846 43.851,135.262 44.157 C 134.678 44.463,132.850 45.210,131.200 45.816 C 129.550 46.423,127.468 47.252,126.574 47.660 C 125.679 48.067,124.717 48.400,124.435 48.400 C 124.154 48.400,123.446 48.651,122.862 48.957 C 122.278 49.263,120.450 50.010,118.800 50.616 C 117.150 51.223,115.068 52.052,114.174 52.460 C 113.279 52.867,112.317 53.200,112.035 53.200 C 111.754 53.200,111.046 53.451,110.462 53.757 C 109.878 54.063,108.050 54.810,106.400 55.416 C 104.750 56.023,102.668 56.852,101.774 57.260 C 100.879 57.667,99.884 58.000,99.563 58.000 C 99.241 58.000,98.623 58.247,98.189 58.549 C 97.755 58.851,96.833 59.221,96.139 59.372 C 95.446 59.523,94.192 59.996,93.354 60.423 C 92.516 60.850,91.637 61.200,91.400 61.200 C 91.163 61.200,90.263 61.560,89.400 62.000 C 88.537 62.440,87.549 62.800,87.204 62.800 C 86.860 62.800,86.223 63.047,85.789 63.349 C 85.355 63.651,84.433 64.021,83.739 64.172 C 83.046 64.323,81.792 64.796,80.954 65.223 C 80.116 65.650,79.237 66.000,79.000 66.000 C 78.763 66.000,77.863 66.360,77.000 66.800 C 76.137 67.240,75.149 67.600,74.804 67.600 C 74.460 67.600,73.823 67.847,73.389 68.149 C 72.955 68.451,72.033 68.821,71.339 68.972 C 70.646 69.123,69.392 69.596,68.554 70.023 C 67.716 70.450,66.782 70.800,66.479 70.800 C 66.175 70.800,65.469 71.160,64.909 71.600 C 64.350 72.040,63.675 72.400,63.410 72.400 C 62.711 72.400,61.958 74.292,62.228 75.370 C 62.517 76.519,63.926 77.579,67.011 78.967 C 68.325 79.559,69.940 80.289,70.600 80.591 C 71.260 80.893,72.472 81.346,73.294 81.599 C 74.116 81.852,74.892 82.225,75.018 82.429 C 75.144 82.633,75.559 82.800,75.939 82.800 C 76.320 82.800,77.337 83.160,78.200 83.600 C 79.063 84.040,79.959 84.400,80.191 84.400 C 80.422 84.400,81.284 84.760,82.104 85.200 C 82.925 85.640,83.823 86.006,84.099 86.013 C 84.374 86.019,85.500 86.468,86.600 87.009 C 87.700 87.550,88.787 87.994,89.015 87.996 C 89.244 87.998,90.137 88.360,91.000 88.800 C 91.863 89.240,92.880 89.600,93.261 89.600 C 93.641 89.600,94.056 89.767,94.182 89.971 C 94.308 90.175,95.084 90.553,95.906 90.811 C 97.283 91.243,99.145 92.007,102.200 93.395 C 102.860 93.694,104.072 94.146,104.894 94.399 C 105.716 94.652,106.492 95.025,106.618 95.229 C 106.744 95.433,107.159 95.600,107.539 95.600 C 107.920 95.600,108.937 95.960,109.800 96.400 C 110.663 96.840,111.563 97.200,111.800 97.200 C 112.037 97.200,112.937 97.560,113.800 98.000 C 114.663 98.440,115.563 98.800,115.800 98.800 C 116.037 98.800,116.937 99.160,117.800 99.600 C 118.663 100.040,119.556 100.406,119.785 100.413 C 120.013 100.419,121.100 100.868,122.200 101.409 C 123.300 101.950,124.470 102.400,124.800 102.409 C 125.130 102.418,125.749 102.690,126.176 103.013 C 126.604 103.336,127.234 103.606,127.576 103.613 C 127.919 103.619,129.100 104.068,130.200 104.609 C 131.300 105.150,132.504 105.594,132.876 105.596 C 133.248 105.598,133.656 105.767,133.782 105.971 C 133.908 106.175,134.684 106.553,135.506 106.811 C 136.883 107.243,138.745 108.007,141.800 109.395 C 142.460 109.694,143.672 110.146,144.494 110.399 C 145.316 110.652,146.092 111.025,146.218 111.229 C 146.344 111.433,146.759 111.600,147.139 111.600 C 147.520 111.600,148.537 111.960,149.400 112.400 C 150.263 112.840,151.163 113.200,151.400 113.200 C 151.637 113.200,152.537 113.560,153.400 114.000 C 154.263 114.440,155.163 114.800,155.400 114.800 C 155.637 114.800,156.537 115.160,157.400 115.600 C 158.263 116.040,159.159 116.400,159.391 116.400 C 159.622 116.400,160.484 116.760,161.304 117.200 C 162.125 117.640,163.023 118.006,163.299 118.013 C 163.574 118.019,164.700 118.468,165.800 119.009 C 166.900 119.550,167.987 119.994,168.215 119.996 C 168.444 119.998,169.337 120.360,170.200 120.800 C 171.063 121.240,171.963 121.600,172.200 121.600 C 172.437 121.600,173.337 121.960,174.200 122.400 C 175.063 122.840,176.069 123.200,176.436 123.200 C 176.802 123.200,177.326 123.470,177.600 123.800 C 177.874 124.130,178.345 124.400,178.647 124.400 C 178.949 124.400,180.952 125.120,183.098 126.000 C 185.244 126.881,187.630 127.719,188.400 127.863 C 189.170 128.007,190.400 128.376,191.133 128.682 C 195.665 130.573,207.346 129.562,213.426 126.752 C 214.321 126.338,215.228 126.000,215.442 126.000 C 215.656 126.000,216.537 125.640,217.400 125.200 C 218.263 124.760,219.251 124.400,219.596 124.400 C 219.940 124.400,220.577 124.153,221.011 123.851 C 221.445 123.549,222.367 123.179,223.061 123.028 C 223.754 122.877,225.008 122.404,225.846 121.977 C 226.684 121.550,227.651 121.200,227.996 121.200 C 228.340 121.200,228.977 120.953,229.411 120.651 C 229.845 120.349,230.767 119.979,231.461 119.828 C 232.154 119.677,233.408 119.204,234.246 118.777 C 235.084 118.350,236.051 118.000,236.396 118.000 C 236.740 118.000,237.377 117.754,237.811 117.454 C 238.245 117.154,239.050 116.779,239.600 116.622 C 240.993 116.224,244.683 114.813,246.626 113.935 C 247.521 113.531,248.516 113.200,248.837 113.200 C 249.159 113.200,249.777 112.953,250.211 112.651 C 250.645 112.349,251.567 111.979,252.261 111.828 C 252.954 111.677,254.208 111.204,255.046 110.777 C 255.884 110.350,256.851 110.000,257.196 110.000 C 257.540 110.000,258.177 109.753,258.611 109.451 C 259.045 109.149,259.967 108.779,260.661 108.628 C 261.354 108.477,262.608 108.004,263.446 107.577 C 264.284 107.150,265.257 106.800,265.608 106.800 C 265.960 106.800,266.596 106.536,267.024 106.213 C 267.451 105.890,268.077 105.620,268.415 105.613 C 268.754 105.606,269.716 105.250,270.554 104.823 C 271.392 104.396,272.583 103.936,273.200 103.800 C 273.817 103.664,275.008 103.204,275.846 102.777 C 276.684 102.350,277.651 102.000,277.996 102.000 C 278.340 102.000,278.977 101.753,279.411 101.451 C 279.845 101.149,280.767 100.779,281.461 100.628 C 282.154 100.477,283.408 100.004,284.246 99.577 C 285.084 99.150,286.018 98.800,286.323 98.800 C 286.627 98.800,287.354 98.549,287.938 98.243 C 288.522 97.937,290.350 97.198,292.000 96.600 C 293.650 96.002,295.478 95.263,296.062 94.957 C 296.646 94.651,297.373 94.400,297.677 94.400 C 297.982 94.400,298.916 94.050,299.754 93.623 C 300.592 93.196,301.783 92.736,302.400 92.600 C 303.017 92.464,304.208 92.004,305.046 91.577 C 305.884 91.150,306.818 90.800,307.123 90.800 C 307.427 90.800,308.154 90.549,308.738 90.243 C 309.322 89.937,311.150 89.200,312.800 88.606 C 314.450 88.012,316.340 87.295,317.000 87.013 C 317.660 86.731,319.550 86.001,321.200 85.391 C 322.850 84.780,324.932 83.948,325.826 83.540 C 326.721 83.133,327.721 82.800,328.050 82.800 C 328.378 82.800,328.996 82.536,329.424 82.213 C 329.851 81.890,330.453 81.620,330.761 81.613 C 331.805 81.589,336.191 79.273,337.500 78.055 C 339.524 76.171,338.778 73.082,336.094 72.230 C 335.642 72.086,335.054 71.706,334.787 71.385 C 334.520 71.063,334.002 70.800,333.636 70.800 C 333.269 70.800,332.263 70.440,331.400 70.000 C 330.537 69.560,329.656 69.200,329.442 69.200 C 329.228 69.200,328.321 68.867,327.426 68.460 C 326.532 68.052,324.450 67.223,322.800 66.616 C 321.150 66.010,319.322 65.263,318.738 64.957 C 318.154 64.651,317.432 64.400,317.132 64.400 C 316.833 64.400,315.916 64.040,315.096 63.600 C 314.275 63.160,313.389 62.800,313.128 62.800 C 312.866 62.800,311.921 62.467,311.026 62.060 C 310.132 61.652,308.050 60.816,306.400 60.200 C 304.750 59.584,302.668 58.748,301.774 58.340 C 300.879 57.933,299.855 57.600,299.497 57.600 C 299.140 57.600,298.743 57.432,298.616 57.226 C 298.489 57.021,297.408 56.568,296.213 56.221 C 295.018 55.874,293.931 55.412,293.797 55.195 C 293.663 54.978,293.260 54.800,292.903 54.800 C 292.545 54.800,291.521 54.467,290.626 54.060 C 289.732 53.652,287.650 52.823,286.000 52.216 C 284.350 51.610,282.522 50.863,281.938 50.557 C 281.354 50.251,280.632 50.000,280.332 50.000 C 280.033 50.000,279.116 49.640,278.296 49.200 C 277.475 48.760,276.589 48.400,276.328 48.400 C 276.066 48.400,275.121 48.067,274.226 47.660 C 273.332 47.252,271.250 46.423,269.600 45.816 C 267.950 45.210,266.122 44.463,265.538 44.157 C 264.954 43.851,264.234 43.599,263.938 43.598 C 263.642 43.596,262.860 43.308,262.200 42.957 C 261.540 42.606,260.153 42.062,259.117 41.749 C 258.082 41.436,257.126 41.004,256.994 40.790 C 256.861 40.575,256.441 40.400,256.061 40.400 C 255.680 40.400,254.684 40.050,253.846 39.623 C 253.008 39.196,251.817 38.736,251.200 38.600 C 250.583 38.464,249.392 38.004,248.554 37.577 C 247.716 37.150,246.720 36.800,246.339 36.800 C 245.959 36.800,245.543 36.632,245.416 36.426 C 245.289 36.221,244.208 35.768,243.013 35.421 C 241.818 35.074,240.731 34.612,240.597 34.395 C 240.463 34.178,240.060 34.000,239.703 34.000 C 239.345 34.000,238.321 33.667,237.426 33.260 C 236.532 32.852,234.450 32.023,232.800 31.416 C 231.150 30.810,229.322 30.063,228.738 29.757 C 228.154 29.451,227.427 29.200,227.123 29.200 C 226.818 29.200,225.863 28.840,225.000 28.400 C 224.137 27.960,223.237 27.600,223.000 27.600 C 222.763 27.600,221.863 27.240,221.000 26.800 C 220.137 26.360,219.256 26.000,219.042 26.000 C 218.828 26.000,217.921 25.661,217.026 25.246 C 216.132 24.831,214.680 24.299,213.800 24.063 C 212.920 23.828,211.238 23.363,210.062 23.030 C 207.319 22.254,198.827 21.940,194.245 22.445 M161.900 23.632 C 161.064 24.119,160.978 24.800,161.753 24.800 C 162.058 24.800,162.401 24.440,162.516 24.000 C 162.631 23.560,162.697 23.205,162.663 23.212 C 162.628 23.219,162.285 23.408,161.900 23.632 M153.300 26.998 C 152.615 27.777,152.671 28.000,153.553 28.000 C 153.970 28.000,154.400 27.643,154.516 27.200 C 154.758 26.273,154.043 26.154,153.300 26.998 M255.086 30.407 C 255.200 30.843,255.542 31.200,255.847 31.200 C 256.649 31.200,256.525 30.495,255.639 30.021 C 254.992 29.675,254.910 29.732,255.086 30.407 M140.667 31.867 C 140.206 32.327,140.375 32.800,141.000 32.800 C 141.330 32.800,141.600 32.530,141.600 32.200 C 141.600 31.575,141.127 31.406,140.667 31.867 M263.200 33.600 C 263.200 34.133,263.467 34.400,264.000 34.400 C 264.907 34.400,265.025 33.985,264.320 33.280 C 263.615 32.575,263.200 32.693,263.200 33.600 M132.480 34.880 C 131.775 35.585,131.893 36.000,132.800 36.000 C 133.333 36.000,133.600 35.733,133.600 35.200 C 133.600 34.293,133.185 34.175,132.480 34.880 M271.095 36.843 C 271.303 37.636,272.189 37.865,272.583 37.228 C 272.709 37.023,272.585 36.713,272.307 36.539 C 271.370 35.954,270.894 36.073,271.095 36.843 M124.480 38.080 C 123.775 38.785,123.893 39.200,124.800 39.200 C 125.333 39.200,125.600 38.933,125.600 38.400 C 125.600 37.493,125.185 37.375,124.480 38.080 M120.300 39.632 C 119.915 39.856,119.603 40.256,119.606 40.520 C 119.610 40.852,119.703 40.866,119.906 40.566 C 120.068 40.327,120.560 39.927,121.000 39.678 C 121.440 39.428,121.620 39.224,121.400 39.224 C 121.180 39.224,120.685 39.408,120.300 39.632 M283.600 41.186 C 283.600 41.414,283.855 41.600,284.167 41.600 C 284.478 41.600,284.824 41.825,284.935 42.100 C 285.087 42.477,285.145 42.480,285.168 42.114 C 285.186 41.847,284.840 41.435,284.400 41.200 C 283.858 40.910,283.600 40.905,283.600 41.186 M112.300 42.676 C 111.473 42.892,111.351 44.000,112.153 44.000 C 112.458 44.000,112.801 43.640,112.916 43.200 C 113.031 42.760,113.097 42.421,113.063 42.446 C 113.028 42.472,112.685 42.575,112.300 42.676 M291.886 44.807 C 292.000 45.243,292.342 45.600,292.647 45.600 C 293.449 45.600,293.325 44.895,292.439 44.421 C 291.792 44.075,291.710 44.132,291.886 44.807 M103.680 46.080 C 102.986 46.774,103.090 47.200,103.953 47.200 C 104.370 47.200,104.800 46.843,104.916 46.400 C 105.150 45.505,104.439 45.321,103.680 46.080 M300.000 48.000 C 300.000 48.533,300.267 48.800,300.800 48.800 C 301.707 48.800,301.825 48.385,301.120 47.680 C 300.415 46.975,300.000 47.093,300.000 48.000 M95.338 49.417 C 95.208 49.757,95.213 50.147,95.351 50.284 C 95.488 50.421,95.600 50.247,95.600 49.896 C 95.600 49.545,95.915 49.176,96.300 49.076 C 96.956 48.904,96.955 48.890,96.287 48.846 C 95.896 48.821,95.468 49.078,95.338 49.417 M307.895 51.243 C 308.103 52.036,308.989 52.265,309.383 51.628 C 309.509 51.423,309.385 51.113,309.107 50.939 C 308.170 50.354,307.694 50.473,307.895 51.243 M91.067 51.067 C 90.606 51.527,90.775 52.000,91.400 52.000 C 91.730 52.000,92.000 51.730,92.000 51.400 C 92.000 50.775,91.527 50.606,91.067 51.067 M82.880 54.080 C 82.175 54.785,82.293 55.200,83.200 55.200 C 83.733 55.200,84.000 54.933,84.000 54.400 C 84.000 53.493,83.585 53.375,82.880 54.080 M320.400 55.586 C 320.400 55.814,320.655 56.000,320.967 56.000 C 321.278 56.000,321.624 56.225,321.735 56.500 C 321.887 56.877,321.945 56.880,321.968 56.514 C 321.986 56.247,321.640 55.835,321.200 55.600 C 320.658 55.310,320.400 55.305,320.400 55.586 M328.697 59.251 C 328.805 59.663,329.142 60.000,329.447 60.000 C 330.276 60.000,330.114 58.923,329.251 58.697 C 328.674 58.547,328.547 58.674,328.697 59.251 " stroke="none" fill="#e61e25" fill-rule="evenodd"></path><path id="path4" d="M188.350 13.821 C 188.322 13.920,188.278 14.225,188.250 14.500 C 188.217 14.829,187.201 15.068,185.271 15.200 C 183.038 15.353,182.250 15.566,181.951 16.100 C 181.694 16.561,181.077 16.800,180.143 16.800 C 179.062 16.800,178.675 16.990,178.516 17.600 C 178.359 18.201,177.970 18.400,176.953 18.400 C 175.867 18.400,175.600 18.558,175.600 19.200 C 175.600 19.891,175.333 20.000,173.637 20.000 C 171.872 20.000,171.696 20.080,171.884 20.800 C 172.076 21.536,171.896 21.600,169.647 21.600 C 167.467 21.600,167.200 21.687,167.200 22.400 C 167.200 23.067,166.933 23.200,165.600 23.200 C 164.267 23.200,164.000 23.333,164.000 24.000 C 164.000 24.711,163.733 24.800,161.600 24.800 C 159.467 24.800,159.200 24.889,159.200 25.600 C 159.200 26.303,158.933 26.400,157.000 26.400 C 155.067 26.400,154.800 26.497,154.800 27.200 C 154.800 27.881,154.533 28.000,153.000 28.000 C 151.467 28.000,151.200 28.119,151.200 28.800 C 151.200 29.511,150.933 29.600,148.800 29.600 C 146.667 29.600,146.400 29.689,146.400 30.400 C 146.400 31.067,146.133 31.200,144.800 31.200 C 143.467 31.200,143.200 31.333,143.200 32.000 C 143.200 32.711,142.933 32.800,140.800 32.800 C 138.667 32.800,138.400 32.889,138.400 33.600 C 138.400 34.303,138.133 34.400,136.200 34.400 C 134.267 34.400,134.000 34.497,134.000 35.200 C 134.000 35.870,133.733 36.000,132.363 36.000 C 131.062 36.000,130.682 36.164,130.516 36.800 C 130.339 37.475,129.970 37.600,128.153 37.600 C 126.267 37.600,126.000 37.699,126.000 38.400 C 126.000 39.070,125.733 39.200,124.363 39.200 C 123.062 39.200,122.682 39.364,122.516 40.000 C 122.339 40.677,121.970 40.800,120.116 40.800 C 118.262 40.800,117.893 40.923,117.716 41.600 C 117.552 42.227,117.170 42.400,115.953 42.400 C 114.667 42.400,114.400 42.537,114.400 43.200 C 114.400 43.911,114.133 44.000,112.000 44.000 C 109.867 44.000,109.600 44.089,109.600 44.800 C 109.600 45.503,109.333 45.600,107.400 45.600 C 105.467 45.600,105.200 45.697,105.200 46.400 C 105.200 47.081,104.933 47.200,103.400 47.200 C 101.867 47.200,101.600 47.319,101.600 48.000 C 101.600 48.711,101.333 48.800,99.200 48.800 C 97.067 48.800,96.800 48.889,96.800 49.600 C 96.800 50.267,96.533 50.400,95.200 50.400 C 93.867 50.400,93.600 50.533,93.600 51.200 C 93.600 51.911,93.333 52.000,91.200 52.000 C 89.067 52.000,88.800 52.089,88.800 52.800 C 88.800 53.495,88.533 53.600,86.763 53.600 C 85.062 53.600,84.691 53.732,84.516 54.400 C 84.351 55.031,83.970 55.200,82.716 55.200 C 81.462 55.200,81.081 55.369,80.916 56.000 C 80.739 56.677,80.370 56.800,78.516 56.800 C 76.662 56.800,76.293 56.923,76.116 57.600 C 75.952 58.227,75.570 58.400,74.353 58.400 C 73.067 58.400,72.800 58.537,72.800 59.200 C 72.800 59.902,72.533 60.000,70.614 60.000 C 68.838 60.000,68.348 60.150,68.000 60.800 C 67.698 61.364,67.162 61.600,66.186 61.600 C 65.031 61.600,64.800 61.745,64.800 62.467 C 64.800 62.943,64.665 63.198,64.500 63.033 C 64.335 62.868,64.200 62.540,64.200 62.305 C 64.200 61.550,62.762 61.635,62.081 62.431 C 61.719 62.854,60.924 63.200,60.314 63.200 C 59.640 63.200,59.011 63.513,58.707 64.000 C 58.432 64.440,57.891 64.800,57.504 64.800 C 57.067 64.800,56.800 65.103,56.800 65.600 C 56.800 66.285,56.533 66.400,54.947 66.400 C 53.610 66.400,52.906 66.616,52.420 67.176 C 52.050 67.604,51.309 68.013,50.773 68.087 C 49.499 68.262,48.729 68.762,49.017 69.228 C 49.144 69.432,48.787 69.600,48.224 69.600 C 47.467 69.600,47.200 69.808,47.200 70.400 C 47.200 70.933,46.933 71.200,46.400 71.200 C 45.867 71.200,45.600 71.467,45.600 72.000 C 45.600 72.533,45.333 72.800,44.800 72.800 C 44.283 72.800,44.000 73.067,44.000 73.553 C 44.000 73.970,43.643 74.400,43.200 74.516 C 42.601 74.673,42.400 75.062,42.400 76.066 C 42.400 76.974,42.142 77.569,41.600 77.907 C 40.878 78.358,40.800 78.840,40.800 82.859 C 40.800 86.553,40.686 87.395,40.133 87.799 C 39.226 88.463,39.226 91.724,40.133 92.726 C 40.982 93.664,40.974 93.925,40.100 93.856 C 38.920 93.762,38.818 264.975,39.997 265.998 C 40.667 266.579,40.800 267.188,40.800 269.685 C 40.800 272.168,40.936 272.799,41.600 273.400 C 42.142 273.891,42.400 274.632,42.400 275.699 C 42.400 276.938,42.571 277.320,43.200 277.484 C 43.696 277.614,44.019 278.056,44.050 278.647 C 44.145 280.451,44.202 280.600,44.800 280.600 C 45.130 280.600,45.458 281.005,45.528 281.500 C 45.607 282.057,45.933 282.400,46.384 282.400 C 46.843 282.400,47.214 282.801,47.385 283.482 C 47.698 284.730,50.267 287.159,51.300 287.183 C 51.728 287.194,52.000 287.511,52.000 288.000 C 52.000 288.533,52.267 288.800,52.800 288.800 C 53.240 288.800,53.960 289.160,54.400 289.600 C 54.916 290.116,55.733 290.400,56.704 290.400 C 57.774 290.400,58.351 290.630,58.707 291.200 C 59.023 291.705,59.640 292.000,60.384 292.000 C 61.035 292.000,61.717 292.279,61.910 292.625 C 62.283 293.292,63.044 293.520,65.053 293.569 C 65.955 293.591,66.365 293.824,66.516 294.400 C 66.673 294.999,67.062 295.200,68.066 295.200 C 68.974 295.200,69.569 295.458,69.907 296.000 C 70.293 296.618,70.840 296.800,72.307 296.800 C 73.774 296.800,74.321 296.982,74.707 297.600 C 75.019 298.099,75.640 298.400,76.357 298.400 C 77.170 298.400,77.568 298.634,77.716 299.200 C 77.880 299.829,78.262 300.000,79.501 300.000 C 80.568 300.000,81.309 300.258,81.800 300.800 C 82.277 301.327,83.032 301.600,84.015 301.600 C 85.170 301.600,85.554 301.780,85.716 302.400 C 85.876 303.013,86.262 303.200,87.363 303.200 C 88.267 303.200,89.097 303.497,89.600 304.000 C 90.116 304.516,90.933 304.800,91.904 304.800 C 92.974 304.800,93.551 305.030,93.907 305.600 C 94.270 306.181,94.840 306.400,95.991 306.400 C 97.308 306.400,97.532 306.513,97.318 307.069 C 97.123 307.577,97.223 307.677,97.731 307.482 C 98.099 307.341,98.400 307.399,98.400 307.613 C 98.400 307.826,99.099 308.000,99.953 308.000 C 101.170 308.000,101.552 308.173,101.716 308.800 C 101.873 309.399,102.262 309.600,103.266 309.600 C 104.174 309.600,104.769 309.858,105.107 310.400 C 105.496 311.022,106.040 311.200,107.557 311.200 C 109.170 311.200,109.543 311.338,109.716 312.000 C 109.883 312.638,110.262 312.800,111.586 312.800 C 112.500 312.800,113.149 312.960,113.028 313.155 C 112.712 313.666,113.611 314.211,115.000 314.351 C 115.660 314.417,116.572 314.815,117.026 315.236 C 117.518 315.691,118.428 316.000,119.279 316.000 C 120.370 316.000,120.756 316.189,120.916 316.800 C 121.078 317.420,121.462 317.600,122.618 317.600 C 123.559 317.600,124.295 317.850,124.606 318.276 C 124.900 318.678,125.891 319.043,127.050 319.176 C 128.385 319.329,129.000 319.583,129.000 319.981 C 129.000 320.361,129.528 320.613,130.530 320.711 C 131.371 320.793,132.406 321.206,132.830 321.630 C 133.326 322.126,134.153 322.400,135.153 322.400 C 136.370 322.400,136.752 322.573,136.916 323.200 C 137.073 323.799,137.462 324.000,138.466 324.000 C 139.382 324.000,139.969 324.258,140.316 324.815 C 140.596 325.263,141.044 325.601,141.313 325.567 C 143.269 325.318,144.721 325.654,144.916 326.400 C 145.073 326.999,145.462 327.200,146.466 327.200 C 147.374 327.200,147.969 327.458,148.307 328.000 C 148.693 328.618,149.240 328.800,150.707 328.800 C 152.174 328.800,152.721 328.982,153.107 329.600 C 153.447 330.144,154.040 330.400,154.959 330.400 C 155.988 330.400,156.298 330.563,156.256 331.082 C 156.213 331.601,156.582 331.796,157.789 331.896 C 158.664 331.968,159.754 332.381,160.215 332.814 C 160.724 333.292,161.610 333.600,162.479 333.600 C 163.570 333.600,163.956 333.789,164.116 334.400 C 164.276 335.013,164.662 335.200,165.763 335.200 C 166.667 335.200,167.497 335.497,168.000 336.000 C 168.516 336.516,169.333 336.800,170.304 336.800 C 171.374 336.800,171.951 337.030,172.307 337.600 C 172.670 338.181,173.240 338.400,174.391 338.400 C 175.708 338.400,175.932 338.513,175.718 339.069 C 175.523 339.577,175.623 339.677,176.131 339.482 C 176.499 339.341,176.800 339.399,176.800 339.613 C 176.800 339.826,177.666 340.000,178.725 340.000 C 180.096 340.000,180.896 340.230,181.508 340.800 C 182.207 341.451,182.919 341.600,185.339 341.600 C 187.924 341.600,188.304 341.691,188.256 342.300 C 188.208 342.899,188.633 343.019,191.198 343.130 C 193.463 343.228,194.362 343.437,194.874 343.987 C 195.961 345.154,205.134 345.178,206.185 344.017 C 206.752 343.391,207.417 343.200,209.039 343.200 C 210.680 343.200,211.277 343.026,211.699 342.423 C 212.149 341.780,212.785 341.632,215.381 341.563 C 217.772 341.500,218.689 341.311,219.228 340.772 C 219.670 340.330,220.660 340.027,221.868 339.965 C 223.863 339.863,224.955 339.374,224.572 338.755 C 224.451 338.560,225.100 338.400,226.014 338.400 C 227.338 338.400,227.717 338.238,227.884 337.600 C 228.057 336.938,228.430 336.800,230.043 336.800 C 231.560 336.800,232.104 336.622,232.493 336.000 C 232.831 335.458,233.426 335.200,234.334 335.200 C 235.338 335.200,235.727 334.999,235.884 334.400 C 236.048 333.773,236.430 333.600,237.647 333.600 C 238.501 333.600,239.200 333.426,239.200 333.213 C 239.200 332.999,239.501 332.941,239.869 333.082 C 240.377 333.277,240.477 333.177,240.282 332.669 C 240.074 332.128,240.290 331.990,241.413 331.950 C 243.667 331.869,243.800 331.827,243.800 331.205 C 243.800 330.796,244.423 330.521,245.791 330.325 C 246.885 330.169,247.985 329.761,248.235 329.420 C 248.504 329.052,249.294 328.800,250.182 328.800 C 251.338 328.800,251.722 328.620,251.884 328.000 C 252.046 327.380,252.430 327.200,253.585 327.200 C 254.568 327.200,255.323 326.927,255.800 326.400 C 256.230 325.925,257.032 325.600,257.774 325.600 C 258.565 325.600,259.235 325.306,259.600 324.800 C 259.938 324.331,260.635 324.000,261.285 324.000 C 261.960 324.000,262.589 323.687,262.893 323.200 C 263.279 322.582,263.826 322.400,265.293 322.400 C 266.760 322.400,267.307 322.218,267.693 321.600 C 268.031 321.058,268.626 320.800,269.534 320.800 C 270.538 320.800,270.927 320.599,271.084 320.000 C 271.248 319.373,271.630 319.200,272.847 319.200 C 273.701 319.200,274.400 319.026,274.400 318.813 C 274.400 318.599,274.701 318.541,275.069 318.682 C 275.577 318.877,275.677 318.777,275.482 318.269 C 275.268 317.713,275.492 317.600,276.809 317.600 C 277.960 317.600,278.530 317.381,278.893 316.800 C 279.249 316.230,279.826 316.000,280.896 316.000 C 281.867 316.000,282.684 315.716,283.200 315.200 C 283.703 314.697,284.533 314.400,285.437 314.400 C 286.538 314.400,286.924 314.213,287.084 313.600 C 287.244 312.989,287.630 312.800,288.721 312.800 C 289.590 312.800,290.476 312.492,290.985 312.014 C 291.446 311.581,292.536 311.168,293.411 311.096 C 294.618 310.996,294.987 310.801,294.944 310.282 C 294.902 309.763,295.212 309.600,296.241 309.600 C 297.160 309.600,297.753 309.344,298.093 308.800 C 298.479 308.182,299.026 308.000,300.493 308.000 C 301.960 308.000,302.507 307.818,302.893 307.200 C 303.231 306.658,303.826 306.400,304.734 306.400 C 305.738 306.400,306.127 306.199,306.284 305.600 C 306.479 304.854,307.931 304.518,309.887 304.767 C 310.156 304.801,310.604 304.463,310.884 304.015 C 311.231 303.458,311.818 303.200,312.734 303.200 C 313.738 303.200,314.127 302.999,314.284 302.400 C 314.448 301.773,314.830 301.600,316.047 301.600 C 317.047 301.600,317.874 301.326,318.370 300.830 C 318.794 300.406,319.829 299.993,320.670 299.911 C 321.672 299.813,322.200 299.561,322.200 299.181 C 322.200 298.783,322.815 298.529,324.150 298.376 C 325.309 298.243,326.300 297.878,326.594 297.476 C 326.905 297.050,327.641 296.800,328.582 296.800 C 329.738 296.800,330.122 296.620,330.284 296.000 C 330.448 295.373,330.830 295.200,332.047 295.200 C 333.333 295.200,333.600 295.063,333.600 294.400 C 333.600 293.742,333.883 293.591,335.200 293.550 C 337.598 293.475,338.616 293.073,338.183 292.372 C 338.055 292.165,338.691 292.000,339.614 292.000 C 340.938 292.000,341.317 291.838,341.484 291.200 C 341.657 290.538,342.030 290.400,343.643 290.400 C 345.160 290.400,345.704 290.222,346.093 289.600 C 346.368 289.160,346.909 288.800,347.296 288.800 C 347.733 288.800,348.000 288.497,348.000 288.000 C 348.000 287.381,348.267 287.200,349.177 287.200 C 349.856 287.200,350.576 286.893,350.877 286.474 C 351.165 286.074,351.715 285.630,352.100 285.486 C 352.485 285.343,352.800 284.949,352.800 284.613 C 352.800 284.276,353.160 283.640,353.600 283.200 C 354.040 282.760,354.400 282.040,354.400 281.600 C 354.400 281.067,354.667 280.800,355.200 280.800 C 355.751 280.800,356.000 280.533,356.000 279.944 C 356.000 279.473,356.288 278.877,356.641 278.620 C 356.996 278.360,357.374 277.332,357.489 276.310 C 357.642 274.950,357.893 274.417,358.448 274.272 C 359.098 274.102,359.200 273.676,359.200 271.134 C 359.200 268.626,359.318 268.119,360.000 267.693 C 361.264 266.904,361.264 83.897,360.000 82.291 C 359.464 81.609,359.200 80.668,359.200 79.437 C 359.200 78.133,358.968 77.368,358.400 76.800 C 357.960 76.360,357.600 75.683,357.600 75.296 C 357.600 74.909,357.253 74.376,356.830 74.111 C 356.406 73.847,356.001 73.223,355.930 72.725 C 355.858 72.227,355.350 71.593,354.800 71.316 C 354.250 71.039,353.957 70.809,354.149 70.806 C 354.341 70.803,354.276 70.532,354.004 70.204 C 353.732 69.877,353.351 69.707,353.158 69.826 C 352.965 69.945,352.347 69.583,351.785 69.022 C 351.223 68.460,350.542 68.000,350.270 68.000 C 349.999 68.000,349.517 67.640,349.200 67.200 C 348.800 66.645,348.165 66.400,347.124 66.400 C 345.887 66.400,345.670 66.283,345.882 65.731 C 346.077 65.223,345.977 65.123,345.469 65.318 C 345.101 65.459,344.800 65.401,344.800 65.187 C 344.800 64.974,344.101 64.800,343.247 64.800 C 342.030 64.800,341.648 64.627,341.484 64.000 C 341.327 63.401,340.938 63.200,339.934 63.200 C 339.018 63.200,338.431 62.942,338.084 62.385 C 337.804 61.937,337.356 61.599,337.087 61.633 C 334.507 61.961,332.000 61.551,332.000 60.800 C 332.000 60.089,331.733 60.000,329.600 60.000 C 327.467 60.000,327.200 59.911,327.200 59.200 C 327.200 58.554,326.933 58.400,325.814 58.400 C 324.838 58.400,324.302 58.164,324.000 57.600 C 323.652 56.950,323.162 56.800,321.386 56.800 C 319.467 56.800,319.200 56.702,319.200 56.000 C 319.200 55.333,318.933 55.200,317.600 55.200 C 316.267 55.200,316.000 55.067,316.000 54.400 C 316.000 53.689,315.733 53.600,313.600 53.600 C 311.467 53.600,311.200 53.511,311.200 52.800 C 311.200 52.119,310.933 52.000,309.400 52.000 C 307.867 52.000,307.600 51.881,307.600 51.200 C 307.600 50.497,307.333 50.400,305.400 50.400 C 303.467 50.400,303.200 50.303,303.200 49.600 C 303.200 48.922,302.933 48.800,301.447 48.800 C 300.030 48.800,299.653 48.647,299.484 48.000 C 299.309 47.332,298.938 47.200,297.237 47.200 C 295.325 47.200,294.981 46.986,295.153 45.900 C 295.179 45.735,294.120 45.600,292.800 45.600 C 290.667 45.600,290.400 45.511,290.400 44.800 C 290.400 44.137,290.133 44.000,288.847 44.000 C 287.630 44.000,287.248 43.827,287.084 43.200 C 286.906 42.520,286.538 42.400,284.637 42.400 C 282.667 42.400,282.400 42.305,282.400 41.600 C 282.400 40.933,282.133 40.800,280.800 40.800 C 279.467 40.800,279.200 40.667,279.200 40.000 C 279.200 39.289,278.933 39.200,276.800 39.200 C 274.667 39.200,274.400 39.111,274.400 38.400 C 274.400 37.719,274.133 37.600,272.600 37.600 C 271.067 37.600,270.800 37.481,270.800 36.800 C 270.800 36.097,270.533 36.000,268.600 36.000 C 266.667 36.000,266.400 35.903,266.400 35.200 C 266.400 34.519,266.133 34.400,264.600 34.400 C 263.067 34.400,262.800 34.281,262.800 33.600 C 262.800 32.897,262.533 32.800,260.600 32.800 C 258.667 32.800,258.400 32.703,258.400 32.000 C 258.400 31.289,258.133 31.200,256.000 31.200 C 253.867 31.200,253.600 31.111,253.600 30.400 C 253.600 29.737,253.333 29.600,252.047 29.600 C 250.830 29.600,250.448 29.427,250.284 28.800 C 250.106 28.120,249.738 28.000,247.837 28.000 C 245.867 28.000,245.600 27.905,245.600 27.200 C 245.600 26.537,245.333 26.400,244.047 26.400 C 242.830 26.400,242.448 26.227,242.284 25.600 C 242.106 24.920,241.738 24.800,239.837 24.800 C 237.867 24.800,237.600 24.705,237.600 24.000 C 237.600 23.319,237.333 23.200,235.800 23.200 C 234.267 23.200,234.000 23.081,234.000 22.400 C 234.000 21.697,233.733 21.600,231.800 21.600 C 229.867 21.600,229.600 21.503,229.600 20.800 C 229.600 20.130,229.333 20.000,227.963 20.000 C 226.662 20.000,226.282 19.836,226.116 19.200 C 225.963 18.614,225.570 18.400,224.650 18.400 C 223.826 18.400,223.220 18.124,222.893 17.600 C 222.566 17.077,221.960 16.800,221.141 16.800 C 220.425 16.800,219.676 16.509,219.392 16.122 C 219.041 15.641,218.137 15.396,216.283 15.278 C 214.125 15.140,213.635 14.978,213.470 14.345 C 213.282 13.628,188.549 13.112,188.350 13.821 M207.084 22.038 C 210.265 22.485,214.449 23.618,216.600 24.617 C 217.260 24.923,218.520 25.431,219.400 25.745 C 220.280 26.059,221.990 26.714,223.200 27.200 C 224.410 27.686,226.120 28.343,227.000 28.660 C 227.880 28.977,229.167 29.498,229.860 29.818 C 230.554 30.138,231.336 30.400,231.599 30.400 C 231.862 30.400,232.554 30.668,233.138 30.995 C 233.722 31.322,234.920 31.843,235.800 32.153 C 236.680 32.463,238.345 33.095,239.500 33.558 C 240.655 34.021,242.545 34.779,243.700 35.242 C 244.855 35.705,246.520 36.343,247.400 36.660 C 248.280 36.977,249.567 37.498,250.260 37.818 C 250.954 38.138,251.736 38.400,251.999 38.400 C 252.262 38.400,252.954 38.668,253.538 38.995 C 254.122 39.322,255.320 39.843,256.200 40.153 C 257.080 40.463,258.790 41.114,260.000 41.600 C 261.210 42.086,262.920 42.743,263.800 43.060 C 264.680 43.377,265.967 43.898,266.660 44.218 C 267.354 44.538,268.136 44.800,268.399 44.800 C 268.662 44.800,269.354 45.068,269.938 45.395 C 270.522 45.722,271.720 46.243,272.600 46.553 C 273.480 46.863,275.190 47.514,276.400 48.000 C 277.610 48.486,279.320 49.143,280.200 49.460 C 281.080 49.777,282.367 50.298,283.060 50.618 C 283.754 50.938,284.519 51.200,284.762 51.200 C 285.004 51.200,285.875 51.560,286.696 52.000 C 287.516 52.440,288.411 52.800,288.683 52.800 C 288.956 52.800,289.948 53.141,290.889 53.557 C 293.361 54.652,296.201 55.802,299.400 57.004 C 300.940 57.583,302.767 58.313,303.460 58.628 C 304.154 58.943,304.919 59.200,305.162 59.200 C 305.404 59.200,306.275 59.560,307.096 60.000 C 307.916 60.440,308.811 60.800,309.083 60.800 C 309.356 60.800,310.348 61.151,311.289 61.580 C 312.230 62.009,314.260 62.832,315.800 63.408 C 317.340 63.985,319.167 64.713,319.860 65.028 C 320.554 65.343,321.319 65.600,321.562 65.600 C 321.804 65.600,322.675 65.960,323.496 66.400 C 324.316 66.840,325.211 67.200,325.483 67.200 C 325.756 67.200,326.748 67.541,327.689 67.957 C 328.630 68.374,330.390 69.113,331.600 69.599 C 338.872 72.520,340.747 75.011,338.015 78.121 C 336.924 79.364,333.266 81.600,332.324 81.600 C 332.102 81.600,331.354 81.862,330.660 82.182 C 329.497 82.720,328.658 83.039,324.200 84.645 C 323.320 84.962,322.240 85.392,321.800 85.600 C 321.062 85.949,320.270 86.245,315.800 87.840 C 314.920 88.154,313.722 88.678,313.138 89.005 C 312.554 89.332,311.862 89.600,311.599 89.600 C 311.336 89.600,310.554 89.862,309.860 90.182 C 308.678 90.728,307.698 91.102,303.500 92.611 C 302.565 92.947,301.440 93.392,301.000 93.600 C 300.560 93.808,299.480 94.238,298.600 94.555 C 297.720 94.872,296.190 95.423,295.200 95.779 C 294.210 96.135,292.860 96.671,292.200 96.971 C 291.540 97.270,289.920 97.906,288.600 98.383 C 287.280 98.861,285.430 99.600,284.489 100.026 C 283.548 100.452,282.586 100.800,282.350 100.800 C 282.114 100.800,281.354 101.062,280.660 101.382 C 279.478 101.928,278.498 102.302,274.300 103.811 C 273.365 104.147,272.240 104.592,271.800 104.800 C 271.050 105.155,270.108 105.507,265.900 107.005 C 264.965 107.338,263.722 107.878,263.138 108.205 C 262.554 108.532,261.862 108.800,261.599 108.800 C 261.336 108.800,260.554 109.062,259.860 109.382 C 258.697 109.920,257.858 110.239,253.400 111.845 C 252.520 112.162,251.440 112.592,251.000 112.800 C 250.560 113.008,249.435 113.453,248.500 113.789 C 247.565 114.125,246.035 114.676,245.100 115.013 C 244.165 115.350,242.860 115.871,242.200 116.171 C 241.540 116.470,239.920 117.106,238.600 117.583 C 237.280 118.061,235.430 118.800,234.489 119.226 C 233.548 119.652,232.586 120.000,232.350 120.000 C 232.114 120.000,231.354 120.262,230.660 120.582 C 229.478 121.128,228.498 121.502,224.300 123.011 C 223.365 123.347,222.240 123.792,221.800 124.000 C 221.050 124.355,220.108 124.707,215.900 126.205 C 214.965 126.538,213.722 127.078,213.138 127.405 C 212.554 127.732,211.812 128.000,211.489 128.000 C 211.166 128.000,210.024 128.400,208.951 128.890 C 206.097 130.192,193.953 130.172,190.048 128.858 C 188.644 128.386,187.294 127.994,187.048 127.986 C 186.802 127.979,185.880 127.625,185.000 127.200 C 184.120 126.775,183.174 126.421,182.899 126.414 C 182.623 126.406,181.725 126.040,180.904 125.600 C 180.084 125.160,179.134 124.800,178.795 124.800 C 178.456 124.800,177.823 124.556,177.389 124.257 C 176.955 123.958,175.880 123.485,175.000 123.205 C 174.120 122.925,173.220 122.563,173.000 122.400 C 172.780 122.237,171.908 121.881,171.061 121.608 C 170.215 121.336,169.045 120.863,168.461 120.559 C 167.878 120.254,167.240 120.004,167.044 120.002 C 166.848 120.001,165.948 119.662,165.044 119.248 C 164.140 118.834,162.500 118.135,161.400 117.695 C 160.300 117.254,158.410 116.492,157.200 116.000 C 155.990 115.508,154.145 114.767,153.100 114.353 C 149.002 112.729,146.933 111.873,145.356 111.152 C 144.452 110.738,143.506 110.400,143.255 110.400 C 143.003 110.400,142.125 110.040,141.304 109.600 C 140.484 109.160,139.584 108.800,139.304 108.800 C 139.025 108.800,138.125 108.440,137.304 108.000 C 136.484 107.560,135.534 107.200,135.195 107.200 C 134.856 107.200,134.223 106.956,133.789 106.657 C 133.355 106.358,132.308 105.889,131.461 105.613 C 130.615 105.338,129.445 104.863,128.861 104.559 C 128.278 104.254,127.640 104.004,127.444 104.002 C 127.248 104.001,126.348 103.662,125.444 103.248 C 123.897 102.540,122.372 101.909,117.600 100.000 C 116.500 99.560,114.700 98.840,113.600 98.400 C 108.828 96.491,107.303 95.860,105.756 95.152 C 104.852 94.738,103.906 94.400,103.655 94.400 C 103.403 94.400,102.525 94.040,101.704 93.600 C 100.884 93.160,99.984 92.800,99.704 92.800 C 99.425 92.800,98.525 92.440,97.704 92.000 C 96.884 91.560,95.934 91.200,95.595 91.200 C 95.256 91.200,94.623 90.954,94.189 90.654 C 93.755 90.354,92.950 89.973,92.400 89.809 C 91.850 89.645,90.860 89.277,90.200 88.990 C 88.663 88.323,84.347 86.540,81.900 85.561 C 80.855 85.142,79.100 84.440,78.000 84.000 C 76.900 83.560,75.100 82.840,74.000 82.400 C 72.900 81.960,71.055 81.223,69.900 80.762 C 60.920 77.178,59.111 74.012,64.513 71.332 C 67.304 69.948,69.995 68.800,70.450 68.800 C 70.686 68.800,71.446 68.538,72.140 68.218 C 73.362 67.654,74.640 67.166,78.400 65.829 C 79.390 65.477,80.678 64.922,81.262 64.595 C 81.846 64.268,82.538 64.000,82.801 64.000 C 83.064 64.000,83.846 63.738,84.540 63.418 C 85.736 62.865,87.010 62.380,90.900 60.995 C 91.835 60.662,93.078 60.122,93.662 59.795 C 94.246 59.468,94.938 59.200,95.201 59.200 C 95.464 59.200,96.246 58.938,96.940 58.618 C 98.136 58.065,99.410 57.580,103.300 56.195 C 104.235 55.862,105.478 55.322,106.062 54.995 C 106.646 54.668,107.338 54.400,107.601 54.400 C 107.864 54.400,108.646 54.138,109.340 53.818 C 110.517 53.274,111.344 52.958,115.700 51.387 C 116.635 51.050,117.940 50.529,118.600 50.229 C 119.260 49.930,120.880 49.294,122.200 48.817 C 123.520 48.339,125.370 47.600,126.311 47.174 C 127.252 46.748,128.244 46.400,128.517 46.400 C 128.789 46.400,129.684 46.040,130.504 45.600 C 131.325 45.160,132.196 44.800,132.438 44.800 C 132.681 44.800,133.446 44.538,134.140 44.218 C 135.339 43.664,136.283 43.303,140.400 41.821 C 141.390 41.465,142.740 40.929,143.400 40.629 C 144.060 40.330,145.680 39.694,147.000 39.217 C 148.320 38.739,150.170 38.000,151.111 37.574 C 152.052 37.148,153.014 36.800,153.250 36.800 C 153.486 36.800,154.246 36.543,154.940 36.228 C 155.633 35.913,157.460 35.185,159.000 34.608 C 160.540 34.032,162.570 33.209,163.511 32.780 C 164.452 32.351,165.414 32.000,165.650 32.000 C 165.886 32.000,166.646 31.738,167.340 31.418 C 168.033 31.098,169.320 30.577,170.200 30.260 C 171.080 29.943,172.790 29.286,174.000 28.800 C 175.210 28.314,176.920 27.660,177.800 27.347 C 178.680 27.034,179.760 26.608,180.200 26.400 C 180.640 26.192,181.720 25.764,182.600 25.450 C 183.480 25.135,185.460 24.402,187.000 23.820 C 192.167 21.867,200.565 21.122,207.084 22.038 M59.800 88.281 C 60.680 88.599,62.120 89.097,63.000 89.389 C 63.880 89.682,65.140 90.208,65.800 90.558 C 66.460 90.908,67.275 91.196,67.611 91.198 C 67.947 91.199,68.577 91.446,69.011 91.746 C 69.445 92.046,70.250 92.422,70.800 92.581 C 72.240 92.997,79.908 95.958,81.844 96.846 C 82.748 97.261,83.694 97.600,83.945 97.600 C 84.197 97.600,85.075 97.960,85.896 98.400 C 86.716 98.840,87.666 99.200,88.005 99.200 C 88.344 99.200,88.977 99.446,89.411 99.746 C 89.845 100.046,90.650 100.422,91.200 100.581 C 92.640 100.997,100.308 103.958,102.244 104.846 C 103.148 105.261,104.094 105.600,104.345 105.600 C 104.597 105.600,105.475 105.960,106.296 106.400 C 107.116 106.840,108.033 107.200,108.332 107.200 C 108.632 107.200,109.354 107.451,109.938 107.757 C 110.522 108.063,113.250 109.163,116.000 110.200 C 118.750 111.238,121.740 112.428,122.644 112.844 C 123.548 113.260,124.494 113.600,124.745 113.600 C 124.997 113.600,125.875 113.960,126.696 114.400 C 127.516 114.840,128.411 115.200,128.683 115.200 C 128.956 115.200,129.948 115.548,130.889 115.974 C 131.830 116.400,133.680 117.142,135.000 117.623 C 136.320 118.105,138.140 118.836,139.044 119.249 C 139.948 119.662,140.894 120.000,141.145 120.000 C 141.397 120.000,142.275 120.360,143.096 120.800 C 143.916 121.240,144.866 121.600,145.205 121.600 C 145.544 121.600,146.177 121.846,146.611 122.146 C 147.045 122.446,147.850 122.822,148.400 122.981 C 149.840 123.397,157.508 126.358,159.444 127.246 C 160.348 127.661,161.294 128.000,161.545 128.000 C 161.797 128.000,162.675 128.360,163.496 128.800 C 164.316 129.240,165.211 129.600,165.483 129.600 C 165.756 129.600,166.748 129.950,167.689 130.378 C 168.630 130.807,171.380 131.904,173.800 132.818 C 186.839 137.740,190.750 141.233,194.297 151.125 L 195.400 154.200 195.400 239.400 L 195.400 324.600 194.281 326.696 C 191.412 332.070,186.375 334.210,181.800 332.000 C 180.920 331.575,179.974 331.221,179.699 331.214 C 179.423 331.206,178.525 330.840,177.704 330.400 C 176.884 329.960,175.967 329.600,175.668 329.600 C 175.368 329.600,174.646 329.332,174.062 329.004 C 173.058 328.441,167.450 326.106,164.400 324.981 C 163.630 324.697,162.460 324.182,161.800 323.835 C 161.140 323.488,160.374 323.204,160.099 323.202 C 159.823 323.201,158.925 322.840,158.104 322.400 C 157.284 321.960,156.367 321.600,156.068 321.600 C 155.768 321.600,155.046 321.332,154.462 321.004 C 153.458 320.441,147.850 318.106,144.800 316.981 C 144.030 316.697,142.860 316.182,142.200 315.835 C 141.540 315.488,140.774 315.204,140.499 315.202 C 140.223 315.201,139.325 314.840,138.504 314.400 C 137.684 313.960,136.767 313.600,136.468 313.600 C 136.168 313.600,135.446 313.332,134.862 313.004 C 133.858 312.441,128.250 310.106,125.200 308.981 C 124.430 308.697,123.260 308.182,122.600 307.835 C 121.940 307.488,121.174 307.204,120.899 307.202 C 120.623 307.201,119.725 306.840,118.904 306.400 C 118.084 305.960,117.167 305.600,116.868 305.600 C 116.568 305.600,115.846 305.332,115.262 305.004 C 114.258 304.441,108.650 302.106,105.600 300.981 C 104.830 300.697,103.660 300.182,103.000 299.835 C 102.340 299.488,101.574 299.204,101.299 299.202 C 101.023 299.201,100.125 298.840,99.304 298.400 C 98.484 297.960,97.567 297.600,97.268 297.600 C 96.968 297.600,96.246 297.332,95.662 297.004 C 94.658 296.441,89.050 294.106,86.000 292.981 C 85.230 292.697,84.060 292.182,83.400 291.835 C 82.740 291.488,81.974 291.204,81.699 291.202 C 81.423 291.201,80.525 290.840,79.704 290.400 C 78.884 289.960,77.930 289.600,77.586 289.600 C 77.242 289.600,76.789 289.437,76.580 289.237 C 76.246 288.919,70.385 286.472,66.400 284.987 C 65.630 284.700,64.460 284.182,63.800 283.835 C 63.140 283.488,62.325 283.204,61.989 283.202 C 61.653 283.201,61.023 282.954,60.589 282.654 C 60.155 282.354,59.350 281.968,58.800 281.797 C 56.766 281.164,51.200 275.257,51.200 273.731 C 51.200 273.597,50.858 272.748,50.439 271.844 C 47.844 266.239,48.000 272.134,48.000 179.663 L 48.000 96.155 48.860 93.578 C 50.804 87.753,54.017 86.198,59.800 88.281 " stroke="none" fill="#cecccb" fill-rule="evenodd"></path></g></svg>